<svg version="1.1" viewBox="0.0 0.0 635.0 457.0" fill="none" stroke="none" stroke-linecap="square" stroke-miterlimit="10"
 xmlns:xlink="http://www.w3.org/1999/xlink"
 xmlns="http://www.w3.org/2000/svg">
 <clipPath id="p.0">
  <path d="m0 0l635.0 0l0 457.0l-635.0 0l0 -457.0z" clip-rule="nonzero"/>
 </clipPath>
 <g clip-path="url(#p.0)">
  <path fill="#000000" fill-opacity="0.0" d="m0 0l635.0 0l0 457.0l-635.0 0z" fill-rule="evenodd"/>
  <g filter="url(#shadowFilter-p.1)">
   <use xlink:href="#p.1" transform="matrix(1.0 0.0 0.0 1.0 0.0 2.0)"/>
  </g>
  <defs>
   <filter id="shadowFilter-p.1" filterUnits="userSpaceOnUse">
    <feGaussianBlur in="SourceAlpha" stdDeviation="2.0" result="blur"/>
    <feComponentTransfer in="blur" color-interpolation-filters="sRGB">
     <feFuncR type="linear" slope="0" intercept="0.0"/>
     <feFuncG type="linear" slope="0" intercept="0.0"/>
     <feFuncB type="linear" slope="0" intercept="0.0"/>
     <feFuncA type="linear" slope="0.5" intercept="0"/>
    </feComponentTransfer>
   </filter>
  </defs>
  <g id="p.1">
   <path fill="#cfe2f3" d="m428.90295 107.6816l196.50397 0l0 46.488197l-196.50397 0z" fill-rule="evenodd"/>
   <path stroke="#000000" stroke-width="2.0" stroke-linejoin="round" stroke-linecap="butt" d="m428.90295 107.6816l196.50397 0l0 46.488197l-196.50397 0z" fill-rule="evenodd"/>
   <path fill="#000000" d="m450.47525 142.64569l0 -22.906242l8.640625 0q2.28125 0 3.484375 0.21875q1.6875 0.28125 2.828125 1.078125q1.140625 0.78125 1.828125 2.203125q0.703125 1.421875 0.703125 3.125q0 2.9218674 -1.859375 4.9531174q-1.859375 2.015625 -6.71875 2.015625l-5.875 0l0 9.3125l-3.03125 0zm3.03125 -12.015625l5.921875 0q2.9375 0 4.171875 -1.09375q1.234375 -1.09375 1.234375 -3.0781174q0 -1.4375 -0.734375 -2.453125q-0.71875 -1.03125 -1.90625 -1.359375q-0.765625 -0.203125 -2.828125 -0.203125l-5.859375 0l0 8.187492zm17.921875 12.015625l0 -16.593742l2.53125 0l0 2.5156174q0.96875 -1.7656174 1.78125 -2.3281174q0.828125 -0.5625 1.8125 -0.5625q1.421875 0 2.890625 0.90625l-0.96875 2.6093674q-1.03125 -0.609375 -2.0625 -0.609375q-0.921875 0 -1.65625 0.5625q-0.734375 0.546875 -1.046875 1.53125q-0.46875 1.5 -0.46875 3.28125l0 8.6875l-2.8125 0zm9.640625 -8.296875q0 -4.609375 2.5625 -6.8281174q2.140625 -1.84375 5.21875 -1.84375q3.421875 0 5.59375 2.25q2.171875 2.2343674 2.171875 6.1874924q0 3.203125 -0.96875 5.046875q-0.953125 1.828125 -2.796875 2.84375q-1.828125 1.015625 -4.0 1.015625q-3.484375 0 -5.640625 -2.234375q-2.140625 -2.234375 -2.140625 -6.4375zm2.890625 0q0 3.1875 1.390625 4.78125q1.390625 1.578125 3.5 1.578125q2.09375 0 3.484375 -1.59375q1.390625 -1.59375 1.390625 -4.859375q0 -3.078125 -1.40625 -4.65625q-1.390625 -1.59375 -3.46875 -1.59375q-2.109375 0 -3.5 1.578125q-1.390625 1.578125 -1.390625 4.765625zm26.78125 2.21875l2.7655945 0.359375q-0.453125 2.859375 -2.3280945 4.484375q-1.859375 1.609375 -4.578125 1.609375q-3.40625 0 -5.484375 -2.21875q-2.0625 -2.234375 -2.0625 -6.390625q0 -2.6875 0.890625 -4.703125q0.890625 -2.0156174 2.703125 -3.0156174q1.828125 -1.015625 3.96875 -1.015625q2.703125 0 4.421875 1.375q1.7187195 1.3593674 2.2030945 3.8749924l-2.7343445 0.421875q-0.390625 -1.671875 -1.390625 -2.515625q-0.984375 -0.8437424 -2.390625 -0.8437424q-2.125 0 -3.453125 1.5312424q-1.328125 1.515625 -1.328125 4.8125q0 3.34375 1.28125 4.859375q1.28125 1.515625 3.34375 1.515625q1.65625 0 2.765625 -1.015625q1.109375 -1.015625 1.40625 -3.125zm16.53122 0.734375l2.90625 0.359375q-0.6875 2.546875 -2.546875 3.953125q-1.859375 1.40625 -4.75 1.40625q-3.640625 0 -5.78125 -2.234375q-2.125 -2.25 -2.125 -6.296875q0 -4.1875 2.15625 -6.4999924q2.15625 -2.3125 5.59375 -2.3125q3.328125 0 5.4375 2.265625q2.109375 2.2656174 2.109375 6.3749924q0 0.25 -0.015625 0.75l-12.375 0q0.15625 2.734375 1.546875 4.1875q1.390625 1.453125 3.46875 1.453125q1.546875 0 2.640625 -0.8125q1.09375 -0.8125 1.734375 -2.59375zm-9.234375 -4.546875l9.265625 0q-0.1875 -2.09375 -1.0625 -3.140625q-1.34375 -1.6249924 -3.484375 -1.6249924q-1.9375 0 -3.265625 1.2968674q-1.3125 1.296875 -1.453125 3.46875zm14.546875 4.9375l2.78125 -0.4375q0.234375 1.671875 1.296875 2.5625q1.078125 0.890625 3.0 0.890625q1.9375 0 2.875 -0.78125q0.9375 -0.796875 0.9375 -1.859375q0 -0.953125 -0.828125 -1.5q-0.578125 -0.375 -2.875 -0.953125q-3.09375 -0.78125 -4.296875 -1.34375q-1.1875 -0.578125 -1.8125 -1.578125q-0.609375 -1.015625 -0.609375 -2.234375q0 -1.109375 0.5 -2.046875q0.515625 -0.9531174 1.390625 -1.5781174q0.65625 -0.484375 1.78125 -0.8125q1.140625 -0.34375 2.4375 -0.34375q1.953125 0 3.421875 0.5625q1.484375 0.5625 2.1875 1.53125q0.703125 0.9531174 0.96875 2.5624924l-2.75 0.375q-0.1875 -1.28125 -1.09375 -2.0q-0.890625 -0.7187424 -2.53125 -0.7187424q-1.9375 0 -2.765625 0.6406174q-0.828125 0.640625 -0.828125 1.5q0 0.546875 0.34375 0.984375q0.34375 0.453125 1.078125 0.75q0.421875 0.15625 2.484375 0.71875q2.984375 0.796875 4.15625 1.3125q1.1875 0.5 1.859375 1.46875q0.671875 0.96875 0.671875 2.40625q0 1.40625 -0.828125 2.65625q-0.8125 1.234375 -2.359375 1.921875q-1.546875 0.671875 -3.5 0.671875q-3.234375 0 -4.9375 -1.34375q-1.6875 -1.34375 -2.15625 -3.984375zm16.0 0l2.78125 -0.4375q0.234375 1.671875 1.296875 2.5625q1.078125 0.890625 3.0 0.890625q1.9375 0 2.875 -0.78125q0.9375 -0.796875 0.9375 -1.859375q0 -0.953125 -0.828125 -1.5q-0.578125 -0.375 -2.875 -0.953125q-3.09375 -0.78125 -4.296875 -1.34375q-1.1875 -0.578125 -1.8125 -1.578125q-0.609375 -1.015625 -0.609375 -2.234375q0 -1.109375 0.5 -2.046875q0.515625 -0.9531174 1.390625 -1.5781174q0.65625 -0.484375 1.78125 -0.8125q1.140625 -0.34375 2.4375 -0.34375q1.953125 0 3.421875 0.5625q1.484375 0.5625 2.1875 1.53125q0.703125 0.9531174 0.96875 2.5624924l-2.75 0.375q-0.1875 -1.28125 -1.09375 -2.0q-0.890625 -0.7187424 -2.53125 -0.7187424q-1.9375 0 -2.765625 0.6406174q-0.828125 0.640625 -0.828125 1.5q0 0.546875 0.34375 0.984375q0.34375 0.453125 1.078125 0.75q0.421875 0.15625 2.484375 0.71875q2.984375 0.796875 4.15625 1.3125q1.1875 0.5 1.859375 1.46875q0.671875 0.96875 0.671875 2.40625q0 1.40625 -0.828125 2.65625q-0.8125 1.234375 -2.359375 1.921875q-1.546875 0.671875 -3.5 0.671875q-3.234375 0 -4.9375 -1.34375q-1.6875 -1.34375 -2.15625 -3.984375zm17.140625 -14.718742l0 -3.234375l2.8125 0l0 3.234375l-2.8125 0zm0 19.671867l0 -16.593742l2.8125 0l0 16.593742l-2.8125 0zm7.09375 0l0 -16.593742l2.53125 0l0 2.3593674q1.828125 -2.7343674 5.28125 -2.7343674q1.5 0 2.75 0.546875q1.265625 0.53125 1.890625 1.40625q0.625 0.8749924 0.875 2.0781174q0.15625 0.78125 0.15625 2.734375l0 10.203125l-2.8125 0l0 -10.09375q0 -1.71875 -0.328125 -2.5625q-0.328125 -0.859375 -1.171875 -1.359375q-0.828125 -0.515625 -1.953125 -0.515625q-1.796875 0 -3.109375 1.140625q-1.296875 1.140625 -1.296875 4.328125l0 9.0625l-2.8125 0zm17.28125 1.375l2.734375 0.40625q0.171875 1.265625 0.953125 1.84375q1.046875 0.78125 2.859375 0.78125q1.953125 0 3.015625 -0.78125q1.0625 -0.78125 1.4375 -2.1875q0.21875 -0.859375 0.203125 -3.609375q-1.84375 2.171875 -4.59375 2.171875q-3.421875 0 -5.296875 -2.46875q-1.875 -2.46875 -1.875 -5.921875q0 -2.375 0.859375 -4.375q0.859375 -2.0156174 2.484375 -3.1093674q1.640625 -1.09375 3.84375 -1.09375q2.9375 0 4.84375 2.3749924l0 -1.9999924l2.59375 0l0 14.343742q0 3.875 -0.796875 5.484375q-0.78125 1.625 -2.5 2.5625q-1.703125 0.9375 -4.203125 0.9375q-2.96875 0 -4.796875 -1.34375q-1.828125 -1.328125 -1.765625 -4.015625zm2.328125 -9.96875q0 3.265625 1.296875 4.765625q1.296875 1.5 3.25 1.5q1.9375 0 3.25 -1.484375q1.3125 -1.5 1.3125 -4.6875q0 -3.046875 -1.359375 -4.59375q-1.34375 -1.546875 -3.25 -1.546875q-1.875 0 -3.1875 1.53125q-1.3125 1.515625 -1.3125 4.515625z" fill-rule="nonzero"/>
   <a xlink:href="https://happycoding.io/tutorials/processing" target="_top">
    <path fill="transparent" fill-opacity="0" d="m428.90295 107.6816l196.50397 0l0 46.488197l-196.50397 0z" fill-rule="evenodd"/>
   </a>
   <a xlink:href="https://happycoding.io/tutorials/processing" target="_top">
    <path fill="transparent" fill-opacity="0" d="m428.90295 106.6816l0 0l196.50397 0c0.5523071 0 1.0 0.44771576 1.0 1.0l0 0l0 46.488197c0 0.55229187 -0.44769287 1.0 -1.0 1.0l0 0l-196.50397 0c-0.5522766 0 -1.0 -0.44770813 -1.0 -1.0l0 0l0 -46.488197c0 -0.55228424 0.4477234 -1.0 1.0 -1.0l0 0m0 2.0l0 -1.0l1.0 0l0 46.488197l-1.0 0l0 -1.0l196.50397 0l0 1.0l-1.0 0l0 -46.488197l1.0 0l0 1.0l-196.50397 0z" fill-rule="nonzero"/>
   </a>
  </g>
  <path fill="#000000" fill-opacity="0.0" d="m106.7913 251.53583c0 12.71933 0.01574707 19.080383 0.03150177 25.43866c0.01574707 6.3582764 0.03149414 12.713745 0.03149414 25.42749" fill-rule="evenodd"/>
  <path stroke="#000000" stroke-width="2.0" stroke-linejoin="round" stroke-linecap="butt" d="m106.7913 251.53583c0 12.71933 0.01574707 19.080383 0.03149414 25.43866c0.007873535 3.1791382 0.01574707 6.3575745 0.021652222 10.330444l0.003326416 3.097046" fill-rule="evenodd"/>
  <path fill="#000000" stroke="#000000" stroke-width="2.0" stroke-linecap="butt" d="m103.544304 290.40375l3.3083954 9.074402l3.2985306 -9.077972z" fill-rule="evenodd"/>
  <path fill="#000000" fill-opacity="0.0" d="m527.1549 154.1698c0 12.684021 0.01574707 19.025528 0.03149414 25.368042c0.015808105 6.3425293 0.031555176 12.68605 0.031555176 25.372116" fill-rule="evenodd"/>
  <path stroke="#000000" stroke-width="2.0" stroke-linejoin="round" stroke-linecap="butt" d="m527.1549 154.1698c0 12.684021 0.015808105 19.025528 0.031555176 25.368057c0.007873535 3.1712494 0.01574707 6.342758 0.021606445 10.30722l0.0032958984 3.0648804" fill-rule="evenodd"/>
  <path fill="#000000" stroke="#000000" stroke-width="2.0" stroke-linecap="butt" d="m523.9079 192.91177l3.3084106 9.074387l3.298523 -9.078003z" fill-rule="evenodd"/>
  <path fill="#000000" fill-opacity="0.0" d="m527.1536 251.3936c0 12.683517 0.01574707 19.02452 0.03149414 25.36705c0.01574707 6.342499 0.03149414 12.686554 0.03149414 25.373108" fill-rule="evenodd"/>
  <path stroke="#000000" stroke-width="2.0" stroke-linejoin="round" stroke-linecap="butt" d="m527.1536 251.3936c0 12.683517 0.01574707 19.02452 0.03149414 25.36705c0.007873535 3.1712646 0.01574707 6.3428955 0.02166748 10.307526l0.0032958984 3.0655823" fill-rule="evenodd"/>
  <path fill="#000000" stroke="#000000" stroke-width="2.0" stroke-linecap="butt" d="m523.9066 290.13556l3.3084106 9.074402l3.298523 -9.078003z" fill-rule="evenodd"/>
  <path fill="#000000" fill-opacity="0.0" d="m527.18774 348.6155c0 12.684265 0.01574707 19.026031 0.03149414 25.36853c0.01574707 6.3425293 0.03149414 12.685822 0.03149414 25.371613" fill-rule="evenodd"/>
  <path stroke="#000000" stroke-width="2.0" stroke-linejoin="round" stroke-linecap="butt" d="m527.18774 348.61548c0 12.684296 0.01574707 19.026062 0.03149414 25.36856c0.007873535 3.1712646 0.01574707 6.342743 0.02166748 10.307098l0.0032958984 3.0645142" fill-rule="evenodd"/>
  <path fill="#000000" stroke="#000000" stroke-width="2.0" stroke-linecap="butt" d="m523.94073 387.35745l3.3084106 9.074371l3.298523 -9.077972z" fill-rule="evenodd"/>
  <path fill="#000000" d="m311.71213 228.29025l0 0c0 -2.9049377 2.3549194 -5.259842 5.2598267 -5.259842l0 0c1.3950195 0 2.7328796 0.55415344 3.7192688 1.5405731c0.9864197 0.9864044 1.5405884 2.3242645 1.5405884 3.7192688l0 0c0 2.9049225 -2.3549194 5.259842 -5.259857 5.259842l0 0c-2.9049072 0 -5.2598267 -2.3549194 -5.2598267 -5.259842z" fill-rule="evenodd"/>
  <path stroke="#000000" stroke-width="2.0" stroke-linejoin="round" stroke-linecap="butt" d="m311.71213 228.29025l0 0c0 -2.9049377 2.3549194 -5.259842 5.2598267 -5.259842l0 0c1.3950195 0 2.7328796 0.55415344 3.7192688 1.5405731c0.9864197 0.9864044 1.5405884 2.3242645 1.5405884 3.7192688l0 0c0 2.9049225 -2.3549194 5.259842 -5.259857 5.259842l0 0c-2.9049072 0 -5.2598267 -2.3549194 -5.2598267 -5.259842z" fill-rule="evenodd"/>
  <path fill="#000000" fill-opacity="0.0" d="m428.90167 228.1495l-106.677155 0.12599182" fill-rule="evenodd"/>
  <path stroke="#000000" stroke-width="2.0" stroke-linejoin="round" stroke-linecap="butt" stroke-dasharray="2.0,6.0" d="m428.90167 228.1495l-106.677155 0.12599182" fill-rule="evenodd"/>
  <path fill="#000000" fill-opacity="0.0" d="m205.04327 228.29173l106.677155 0" fill-rule="evenodd"/>
  <path stroke="#000000" stroke-width="2.0" stroke-linejoin="round" stroke-linecap="butt" stroke-dasharray="2.0,6.0" d="m205.04327 228.29173l106.677155 0" fill-rule="evenodd"/>
  <path fill="#000000" fill-opacity="0.0" d="m316.97195 233.5501l0.03149414 68.85039" fill-rule="evenodd"/>
  <path stroke="#000000" stroke-width="2.0" stroke-linejoin="round" stroke-linecap="butt" d="m316.97195 233.5501l0.026000977 56.850388" fill-rule="evenodd"/>
  <path fill="#000000" stroke="#000000" stroke-width="2.0" stroke-linecap="butt" d="m313.69452 290.402l3.3076172 9.0746765l3.2993164 -9.077698z" fill-rule="evenodd"/>
  <g filter="url(#shadowFilter-p.2)">
   <use xlink:href="#p.2" transform="matrix(1.0 0.0 0.0 1.0 0.0 2.0)"/>
  </g>
  <defs>
   <filter id="shadowFilter-p.2" filterUnits="userSpaceOnUse">
    <feGaussianBlur in="SourceAlpha" stdDeviation="2.0" result="blur"/>
    <feComponentTransfer in="blur" color-interpolation-filters="sRGB">
     <feFuncR type="linear" slope="0" intercept="0.0"/>
     <feFuncG type="linear" slope="0" intercept="0.0"/>
     <feFuncB type="linear" slope="0" intercept="0.0"/>
     <feFuncA type="linear" slope="0.5" intercept="0"/>
    </feComponentTransfer>
   </filter>
  </defs>
  <g id="p.2">
   <path fill="#f4cccc" d="m8.539331 205.04764l196.50394 0l0 46.48819l-196.50394 0z" fill-rule="evenodd"/>
   <path stroke="#000000" stroke-width="2.0" stroke-linejoin="round" stroke-linecap="butt" d="m8.539331 205.04764l196.50394 0l0 46.48819l-196.50394 0z" fill-rule="evenodd"/>
   <path fill="#000000" d="m65.79911 240.01173l0 -22.90625l3.03125 0l0 9.40625l11.90625 0l0 -9.40625l3.03125 0l0 22.90625l-3.03125 0l0 -10.796875l-11.90625 0l0 10.796875l-3.03125 0zm28.84375 0l0 -20.203125l-7.546875 0l0 -2.703125l18.15625 0l0 2.703125l-7.578125 0l0 20.203125l-3.03125 0zm13.625 0l0 -22.90625l4.5625 0l5.421875 16.21875q0.75 2.265625 1.09375 3.390625q0.390625 -1.25 1.21875 -3.671875l5.484375 -15.9375l4.0781326 0l0 22.90625l-2.9218826 0l0 -19.171875l-6.65625 19.171875l-2.734375 0l-6.625 -19.5l0 19.5l-2.921875 0zm26.625008 0l0 -22.90625l3.03125 0l0 20.203125l11.28125 0l0 2.703125l-14.3125 0z" fill-rule="nonzero"/>
   <a xlink:href="https://happycoding.io/tutorials/html" target="_top">
    <path fill="transparent" fill-opacity="0" d="m8.539331 205.04764l196.50394 0l0 46.48819l-196.50394 0z" fill-rule="evenodd"/>
   </a>
   <a xlink:href="https://happycoding.io/tutorials/html" target="_top">
    <path fill="transparent" fill-opacity="0" d="m8.539331 204.04764l0 0l196.50394 0c0.55229187 0 1.0 0.44770813 1.0 1.0l0 0l0 46.48819c0 0.55229187 -0.44770813 1.0 -1.0 1.0l0 0l-196.50394 0c-0.5522847 0 -1.0 -0.44770813 -1.0 -1.0l0 0l0 -46.48819c0 -0.55229187 0.44771528 -1.0 1.0 -1.0l0 0m0 2.0l0 -1.0l1.0 0l0 46.48819l-1.0 0l0 -1.0l196.50394 0l0 1.0l-1.0 0l0 -46.48819l1.0 0l0 1.0l-196.50394 0z" fill-rule="nonzero"/>
   </a>
  </g>
  <g filter="url(#shadowFilter-p.3)">
   <use xlink:href="#p.3" transform="matrix(1.0 0.0 0.0 1.0 0.0 2.0)"/>
  </g>
  <defs>
   <filter id="shadowFilter-p.3" filterUnits="userSpaceOnUse">
    <feGaussianBlur in="SourceAlpha" stdDeviation="2.0" result="blur"/>
    <feComponentTransfer in="blur" color-interpolation-filters="sRGB">
     <feFuncR type="linear" slope="0" intercept="0.0"/>
     <feFuncG type="linear" slope="0" intercept="0.0"/>
     <feFuncB type="linear" slope="0" intercept="0.0"/>
     <feFuncA type="linear" slope="0.5" intercept="0"/>
    </feComponentTransfer>
   </filter>
  </defs>
  <g id="p.3">
   <path fill="#a4c2f4" d="m428.90167 204.90541l196.50397 0l0 46.48819l-196.50397 0z" fill-rule="evenodd"/>
   <path stroke="#000000" stroke-width="2.0" stroke-linejoin="round" stroke-linecap="butt" d="m428.90167 204.90541l196.50397 0l0 46.48819l-196.50397 0z" fill-rule="evenodd"/>
   <path fill="#000000" d="m494.27866 233.3695l2.734375 -0.375q0.109375 2.625 0.984375 3.59375q0.875 0.96875 2.421875 0.96875q1.140625 0 1.96875 -0.515625q0.828125 -0.53125 1.140625 -1.421875q0.3125 -0.90625 0.3125 -2.875l0 -15.78125l3.03125 0l0 15.609375q0 2.875 -0.703125 4.453125q-0.6875 1.578125 -2.203125 2.40625q-1.5 0.828125 -3.53125 0.828125q-3.015625 0 -4.625 -1.734375q-1.59375 -1.734375 -1.53125 -5.15625zm28.015594 4.453125q-1.5625 1.328125 -3.015625 1.875q-1.4375 0.546875 -3.09375 0.546875q-2.734375 0 -4.2030945 -1.328125q-1.46875 -1.34375 -1.46875 -3.421875q0 -1.21875 0.546875 -2.21875q0.5625 -1.015625 1.4530945 -1.625q0.90625 -0.609375 2.03125 -0.921875q0.828125 -0.21875 2.5 -0.421875q3.40625 -0.40625 5.015625 -0.96875q0.015625 -0.578125 0.015625 -0.734375q0 -1.71875 -0.796875 -2.421875q-1.078125 -0.953125 -3.203125 -0.953125q-1.984375 0 -2.9375 0.703125q-0.9375 0.6875 -1.390625 2.453125l-2.7499695 -0.375q0.375 -1.765625 1.2343445 -2.84375q0.859375 -1.09375 2.484375 -1.671875q1.625 -0.59375 3.765625 -0.59375q2.125 0 3.453125 0.5q1.328125 0.5 1.953125 1.265625q0.625 0.75 0.875 1.90625q0.140625 0.71875 0.140625 2.59375l0 3.75q0 3.921875 0.171875 4.96875q0.1875 1.03125 0.71875 1.984375l-2.9375 0q-0.4375 -0.875 -0.5625 -2.046875zm-0.234375 -6.28125q-1.53125 0.625 -4.59375 1.0625q-1.734375 0.25 -2.453125 0.5625q-0.71875 0.3125 -1.109375 0.921875q-0.390625 0.59375 -0.390625 1.328125q0 1.125 0.84375 1.875q0.859375 0.75 2.5 0.75q1.625 0 2.890625 -0.703125q1.265625 -0.71875 1.859375 -1.953125q0.453125 -0.953125 0.453125 -2.8125l0 -1.03125zm11.8125 8.328125l-6.3125 -16.59375l2.96875 0l3.5625 9.9375q0.578125 1.609375 1.0625 3.34375q0.375 -1.3125 1.046875 -3.15625l3.6875 -10.125l2.890625 0l-6.28125 16.59375l-2.625 0zm22.21875 -2.046875q-1.5625 1.328125 -3.015625 1.875q-1.4375 0.546875 -3.09375 0.546875q-2.734375 0 -4.203125 -1.328125q-1.46875 -1.34375 -1.46875 -3.421875q0 -1.21875 0.546875 -2.21875q0.5625 -1.015625 1.453125 -1.625q0.90625 -0.609375 2.03125 -0.921875q0.828125 -0.21875 2.5 -0.421875q3.40625 -0.40625 5.015625 -0.96875q0.015625 -0.578125 0.015625 -0.734375q0 -1.71875 -0.796875 -2.421875q-1.078125 -0.953125 -3.203125 -0.953125q-1.984375 0 -2.9375 0.703125q-0.9375 0.6875 -1.390625 2.453125l-2.75 -0.375q0.375 -1.765625 1.234375 -2.84375q0.859375 -1.09375 2.484375 -1.671875q1.625 -0.59375 3.765625 -0.59375q2.125 0 3.453125 0.5q1.328125 0.5 1.953125 1.265625q0.625 0.75 0.875 1.90625q0.140625 0.71875 0.140625 2.59375l0 3.75q0 3.921875 0.171875 4.96875q0.1875 1.03125 0.71875 1.984375l-2.9375 0q-0.4375 -0.875 -0.5625 -2.046875zm-0.234375 -6.28125q-1.53125 0.625 -4.59375 1.0625q-1.734375 0.25 -2.453125 0.5625q-0.71875 0.3125 -1.109375 0.921875q-0.390625 0.59375 -0.390625 1.328125q0 1.125 0.84375 1.875q0.859375 0.75 2.5 0.75q1.625 0 2.890625 -0.703125q1.265625 -0.71875 1.859375 -1.953125q0.453125 -0.953125 0.453125 -2.8125l0 -1.03125z" fill-rule="nonzero"/>
   <a xlink:href="https://happycoding.io/tutorials/java" target="_top">
    <path fill="transparent" fill-opacity="0" d="m428.90167 204.90541l196.50397 0l0 46.48819l-196.50397 0z" fill-rule="evenodd"/>
   </a>
   <a xlink:href="https://happycoding.io/tutorials/java" target="_top">
    <path fill="transparent" fill-opacity="0" d="m428.90167 203.90541l0 0l196.50397 0c0.5523071 0 1.0 0.44770813 1.0 1.0l0 0l0 46.48819c0 0.55229187 -0.44769287 1.0 -1.0 1.0l0 0l-196.50397 0c-0.5522766 0 -1.0 -0.44770813 -1.0 -1.0l0 0l0 -46.48819c0 -0.55229187 0.4477234 -1.0 1.0 -1.0l0 0m0 2.0l0 -1.0l1.0 0l0 46.48819l-1.0 0l0 -1.0l196.50397 0l0 1.0l-1.0 0l0 -46.48819l1.0 0l0 1.0l-196.50397 0z" fill-rule="nonzero"/>
   </a>
  </g>
  <g filter="url(#shadowFilter-p.4)">
   <use xlink:href="#p.4" transform="matrix(1.0 0.0 0.0 1.0 0.0 2.0)"/>
  </g>
  <defs>
   <filter id="shadowFilter-p.4" filterUnits="userSpaceOnUse">
    <feGaussianBlur in="SourceAlpha" stdDeviation="2.0" result="blur"/>
    <feComponentTransfer in="blur" color-interpolation-filters="sRGB">
     <feFuncR type="linear" slope="0" intercept="0.0"/>
     <feFuncG type="linear" slope="0" intercept="0.0"/>
     <feFuncB type="linear" slope="0" intercept="0.0"/>
     <feFuncA type="linear" slope="0.5" intercept="0"/>
    </feComponentTransfer>
   </filter>
  </defs>
  <g id="p.4">
   <path fill="#ea9999" d="m8.5708275 302.4129l196.50394 0l0 46.48819l-196.50394 0z" fill-rule="evenodd"/>
   <path stroke="#000000" stroke-width="2.0" stroke-linejoin="round" stroke-linecap="butt" d="m8.5708275 302.4129l196.50394 0l0 46.48819l-196.50394 0z" fill-rule="evenodd"/>
   <path fill="#000000" d="m33.04936 330.87698l2.734375 -0.375q0.109375 2.625 0.984375 3.59375q0.875 0.96875 2.421875 0.96875q1.140625 0 1.96875 -0.515625q0.828125 -0.53125 1.140625 -1.421875q0.3125 -0.90625 0.3125 -2.875l0 -15.78125l3.03125 0l0 15.609375q0 2.875 -0.703125 4.453125q-0.6875 1.578125 -2.203125 2.40625q-1.5 0.828125 -3.53125 0.828125q-3.015625 0 -4.625 -1.734375q-1.59375 -1.734375 -1.53125 -5.15625zm28.015625 4.453125q-1.5625 1.328125 -3.015625 1.875q-1.4375 0.546875 -3.09375 0.546875q-2.734375 0 -4.203125 -1.328125q-1.46875 -1.34375 -1.46875 -3.421875q0 -1.21875 0.546875 -2.21875q0.5625 -1.015625 1.453125 -1.625q0.90625 -0.609375 2.03125 -0.921875q0.828125 -0.21875 2.5 -0.421875q3.40625 -0.40625 5.015625 -0.96875q0.015625 -0.578125 0.015625 -0.734375q0 -1.71875 -0.796875 -2.421875q-1.078125 -0.953125 -3.203125 -0.953125q-1.984375 0 -2.9375 0.703125q-0.9375 0.6875 -1.390625 2.453125l-2.75 -0.375q0.375 -1.765625 1.234375 -2.84375q0.859375 -1.09375 2.484375 -1.671875q1.625 -0.59375 3.765625 -0.59375q2.125 0 3.453125 0.5q1.328125 0.5 1.953125 1.265625q0.625 0.75 0.875 1.90625q0.140625 0.71875 0.140625 2.59375l0 3.75q0 3.921875 0.171875 4.96875q0.18750381 1.03125 0.7187538 1.984375l-2.9375038 0q-0.4375 -0.875 -0.5625 -2.046875zm-0.234375 -6.28125q-1.53125 0.625 -4.59375 1.0625q-1.734375 0.25 -2.453125 0.5625q-0.71875 0.3125 -1.109375 0.921875q-0.390625 0.59375 -0.390625 1.328125q0 1.125 0.84375 1.875q0.859375 0.75 2.5 0.75q1.625 0 2.890625 -0.703125q1.265625 -0.71875 1.859375 -1.953125q0.453125 -0.953125 0.453125 -2.8125l0 -1.03125zm11.812504 8.328125l-6.3125 -16.59375l2.96875 0l3.5625 9.9375q0.578125 1.609375 1.0625 3.34375q0.375 -1.3125 1.046875 -3.15625l3.6875 -10.125l2.890625 0l-6.28125 16.59375l-2.625 0zm22.21875 -2.046875q-1.5625 1.328125 -3.015625 1.875q-1.4375 0.546875 -3.09375 0.546875q-2.734375 0 -4.203125 -1.328125q-1.46875 -1.34375 -1.46875 -3.421875q0 -1.21875 0.546875 -2.21875q0.5625 -1.015625 1.453125 -1.625q0.90625 -0.609375 2.03125 -0.921875q0.828125 -0.21875 2.5 -0.421875q3.40625 -0.40625 5.015625 -0.96875q0.015625 -0.578125 0.015625 -0.734375q0 -1.71875 -0.796875 -2.421875q-1.078125 -0.953125 -3.203125 -0.953125q-1.984375 0 -2.9375 0.703125q-0.9375 0.6875 -1.390625 2.453125l-2.75 -0.375q0.375 -1.765625 1.234375 -2.84375q0.859375 -1.09375 2.484375 -1.671875q1.625 -0.59375 3.765625 -0.59375q2.125 0 3.453125 0.5q1.328125 0.5 1.953125 1.265625q0.625 0.75 0.875 1.90625q0.140625 0.71875 0.140625 2.59375l0 3.75q0 3.921875 0.171875 4.96875q0.1875 1.03125 0.71875 1.984375l-2.9375 0q-0.4375 -0.875 -0.5625 -2.046875zm-0.234375 -6.28125q-1.53125 0.625 -4.59375 1.0625q-1.734375 0.25 -2.453125 0.5625q-0.71875 0.3125 -1.109375 0.921875q-0.390625 0.59375 -0.390625 1.328125q0 1.125 0.84375 1.875q0.859375 0.75 2.5 0.75q1.625 0 2.890625 -0.703125q1.265625 -0.71875 1.859375 -1.953125q0.453125 -0.953125 0.453125 -2.8125l0 -1.03125zm6.53125 0.96875l2.859375 -0.25q0.203125 1.71875 0.9375 2.828125q0.75 1.09375 2.3125 1.78125q1.5625 0.671875 3.515625 0.671875q1.734375 0 3.0625 -0.515625q1.328125 -0.515625 1.96875 -1.40625q0.65625 -0.90625 0.65625 -1.96875q0 -1.078125 -0.625 -1.875q-0.625 -0.8125 -2.0625 -1.359375q-0.921875 -0.359375 -4.078125 -1.109375q-3.15625 -0.765625 -4.421875 -1.4375q-1.640625 -0.859375 -2.453125 -2.125q-0.796875 -1.28125 -0.796875 -2.859375q0 -1.734375 0.984375 -3.234375q0.984375 -1.515625 2.875 -2.296875q1.890625 -0.78125 4.203125 -0.78125q2.546875 0 4.484375 0.828125q1.953125 0.8125 3.0 2.40625q1.046875 1.59375 1.125 3.609375l-2.90625 0.21875q-0.234375 -2.171875 -1.59375 -3.28125q-1.34375 -1.109375 -3.984375 -1.109375q-2.75 0 -4.015625 1.015625q-1.25 1.0 -1.25 2.421875q0 1.234375 0.890625 2.03125q0.875 0.796875 4.5625 1.640625q3.703125 0.828125 5.078125 1.453125q2.0 0.921875 2.953125 2.34375q0.953125 1.40625 0.953125 3.25q0 1.828125 -1.046875 3.453125q-1.046875 1.609375 -3.015625 2.515625q-1.953125 0.890625 -4.40625 0.890625q-3.109375 0 -5.21875 -0.90625q-2.09375 -0.90625 -3.296875 -2.71875q-1.1875 -1.828125 -1.25 -4.125zm32.84375 1.28125l2.765625 0.359375q-0.453125 2.859375 -2.328125 4.484375q-1.859375 1.609375 -4.578125 1.609375q-3.40625 0 -5.484375 -2.21875q-2.0625 -2.234375 -2.0625 -6.390625q0 -2.6875 0.890625 -4.703125q0.890625 -2.015625 2.703125 -3.015625q1.828125 -1.015625 3.96875 -1.015625q2.703125 0 4.421875 1.375q1.71875 1.359375 2.203125 3.875l-2.734375 0.421875q-0.390625 -1.671875 -1.390625 -2.515625q-0.984375 -0.84375 -2.390625 -0.84375q-2.125 0 -3.453125 1.53125q-1.328125 1.515625 -1.328125 4.8125q0 3.34375 1.28125 4.859375q1.28125 1.515625 3.34375 1.515625q1.65625 0 2.765625 -1.015625q1.109375 -1.015625 1.40625 -3.125zm5.140625 6.078125l0 -16.59375l2.53125 0l0 2.515625q0.96875 -1.765625 1.78125 -2.328125q0.828125 -0.5625 1.8125 -0.5625q1.421875 0 2.890625 0.90625l-0.96875 2.609375q-1.03125 -0.609375 -2.0625 -0.609375q-0.921875 0 -1.65625 0.5625q-0.734375 0.546875 -1.046875 1.53125q-0.46875 1.5 -0.46875 3.28125l0 8.6875l-2.8125 0zm10.703125 -19.671875l0 -3.234375l2.8125 0l0 3.234375l-2.8125 0zm0 19.671875l0 -16.59375l2.8125 0l0 16.59375l-2.8125 0zm7.09375 6.359375l0 -22.953125l2.5625 0l0 2.15625q0.90625 -1.265625 2.046875 -1.890625q1.140625 -0.640625 2.765625 -0.640625q2.125 0 3.75 1.09375q1.625 1.09375 2.453125 3.09375q0.828125 1.984375 0.828125 4.359375q0 2.546875 -0.921875 4.59375q-0.90625 2.03125 -2.65625 3.125q-1.734375 1.078125 -3.65625 1.078125q-1.40625 0 -2.53125 -0.59375q-1.109375 -0.59375 -1.828125 -1.5l0 8.078125l-2.8125 0zm2.546875 -14.5625q0 3.203125 1.296875 4.734375q1.296875 1.53125 3.140625 1.53125q1.875 0 3.203125 -1.578125q1.34375 -1.59375 1.34375 -4.921875q0 -3.171875 -1.3125 -4.75q-1.296875 -1.578125 -3.109375 -1.578125q-1.796875 0 -3.1875 1.6875q-1.375 1.671875 -1.375 4.875zm21.390625 5.6875l0.40625 2.484375q-1.1875 0.25 -2.125 0.25q-1.53125 0 -2.375 -0.484375q-0.84375 -0.484375 -1.1875 -1.265625q-0.34375 -0.796875 -0.34375 -3.328125l0 -9.546875l-2.0625 0l0 -2.1875l2.0625 0l0 -4.109375l2.796875 -1.6875l0 5.796875l2.828125 0l0 2.1875l-2.828125 0l0 9.703125q0 1.203125 0.140625 1.546875q0.15625 0.34375 0.484375 0.546875q0.34375 0.203125 0.96875 0.203125q0.46875 0 1.234375 -0.109375z" fill-rule="nonzero"/>
   <a xlink:href="https://happycoding.io/tutorials/javascript" target="_top">
    <path fill="transparent" fill-opacity="0" d="m8.5708275 302.4129l196.50394 0l0 46.48819l-196.50394 0z" fill-rule="evenodd"/>
   </a>
   <a xlink:href="https://happycoding.io/tutorials/javascript" target="_top">
    <path fill="transparent" fill-opacity="0" d="m8.5708275 301.4129l0 0l196.50394 0c0.55229187 0 1.0 0.4477234 1.0 1.0l0 0l0 46.48819c0 0.5522766 -0.44770813 1.0 -1.0 1.0l0 0l-196.50394 0c-0.5522852 0 -1.0 -0.4477234 -1.0 -1.0l0 0l0 -46.48819c0 -0.5522766 0.4477148 -1.0 1.0 -1.0l0 0m0 2.0l0 -1.0l1.0 0l0 46.48819l-1.0 0l0 -1.0l196.50394 0l0 1.0l-1.0 0l0 -46.48819l1.0 0l0 1.0l-196.50394 0z" fill-rule="nonzero"/>
   </a>
  </g>
  <g filter="url(#shadowFilter-p.5)">
   <use xlink:href="#p.5" transform="matrix(1.0 0.0 0.0 1.0 0.0 2.0)"/>
  </g>
  <defs>
   <filter id="shadowFilter-p.5" filterUnits="userSpaceOnUse">
    <feGaussianBlur in="SourceAlpha" stdDeviation="2.0" result="blur"/>
    <feComponentTransfer in="blur" color-interpolation-filters="sRGB">
     <feFuncR type="linear" slope="0" intercept="0.0"/>
     <feFuncG type="linear" slope="0" intercept="0.0"/>
     <feFuncB type="linear" slope="0" intercept="0.0"/>
     <feFuncA type="linear" slope="0.5" intercept="0"/>
    </feComponentTransfer>
   </filter>
  </defs>
  <g id="p.5">
   <path fill="#ed225d" d="m8.536975 107.68176l196.50394 0l0 46.48819l-196.50394 0z" fill-rule="evenodd"/>
   <path stroke="#000000" stroke-width="2.0" stroke-linejoin="round" stroke-linecap="butt" d="m8.536975 107.68176l196.50394 0l0 46.48819l-196.50394 0z" fill-rule="evenodd"/>
   <path fill="#000000" d="m75.10144 149.00523l0 -22.953133l2.5625 0l0 2.1562576q0.90625 -1.2656326 2.046875 -1.8906326q1.140625 -0.640625 2.765625 -0.640625q2.125 0 3.75 1.09375q1.625 1.09375 2.453125 3.0937576q0.828125 1.984375 0.828125 4.359375q0 2.546875 -0.921875 4.59375q-0.90625 2.03125 -2.65625 3.125q-1.734375 1.078125 -3.65625 1.078125q-1.40625 0 -2.53125 -0.59375q-1.109375 -0.59375 -1.828125 -1.5l0 8.078125l-2.8125 0zm2.546875 -14.5625q0 3.203125 1.296875 4.734375q1.296875 1.53125 3.140625 1.53125q1.875 0 3.203125 -1.578125q1.34375 -1.59375 1.34375 -4.921875q0 -3.171875 -1.3125 -4.75q-1.296875 -1.5781326 -3.109375 -1.5781326q-1.796875 0 -3.1875 1.6875076q-1.375 1.671875 -1.375 4.875zm14.46875 2.203125l2.953125 -0.25q0.328125 2.15625 1.515625 3.25q1.203125 1.078125 2.890625 1.078125q2.03125 0 3.4375 -1.53125q1.40625 -1.53125 1.40625 -4.0625q0 -2.40625 -1.359375 -3.796875q-1.34375 -1.390625 -3.53125 -1.390625q-1.359375 0 -2.453125 0.625q-1.09375 0.609375 -1.71875 1.59375l-2.640625 -0.34375l2.21875 -11.765633l11.390625 0l0 2.6875l-9.140625 0l-1.234375 6.1562576q2.0625 -1.4375076 4.328125 -1.4375076q3.0 0 5.0625 2.0781326q2.0625 2.078125 2.0625 5.34375q0 3.109375 -1.8125 5.375q-2.203125 2.78125 -6.015625 2.78125q-3.125 0 -5.109375 -1.75q-1.96875 -1.75 -2.25 -4.640625zm19.375 6.0l0 -3.203125l3.203125 0l0 3.203125l-3.203125 0zm8.078125 -19.640633l0 -3.265625l2.8125 0l0 3.265625l-2.8125 0zm-3.5625 26.078133l0.53125 -2.390625q0.84375 0.21875 1.328125 0.21875q0.859375 0 1.28125 -0.578125q0.421875 -0.5625 0.421875 -2.84375l0 -17.437508l2.8125 0l0 17.500008q0 3.0625 -0.796875 4.265625q-1.015625 1.5625 -3.375 1.5625q-1.140625 0 -2.203125 -0.296875zm9.5625 -11.390625l2.78125 -0.4375q0.234375 1.671875 1.296875 2.5625q1.078125 0.890625 3.0 0.890625q1.9375 0 2.875 -0.78125q0.9375 -0.796875 0.9375 -1.859375q0 -0.953125 -0.828125 -1.5q-0.578125 -0.375 -2.875 -0.953125q-3.09375 -0.78125 -4.296875 -1.34375q-1.1875 -0.578125 -1.8125 -1.578125q-0.609375 -1.015625 -0.609375 -2.234375q0 -1.109375 0.5 -2.046875q0.515625 -0.9531326 1.390625 -1.5781326q0.65625 -0.484375 1.78125 -0.8125q1.140625 -0.34375 2.4375 -0.34375q1.953125 0 3.421875 0.5625q1.484375 0.5625 2.1875 1.53125q0.703125 0.9531326 0.96875 2.5625076l-2.75 0.375q-0.1875 -1.28125 -1.09375 -2.0q-0.890625 -0.7187576 -2.53125 -0.7187576q-1.9375 0 -2.765625 0.6406326q-0.828125 0.640625 -0.828125 1.5q0 0.546875 0.34375 0.984375q0.34375 0.453125 1.078125 0.75q0.421875 0.15625 2.484375 0.71875q2.984375 0.796875 4.15625 1.3125q1.1875 0.5 1.859375 1.46875q0.671875 0.96875 0.671875 2.40625q0 1.40625 -0.828125 2.65625q-0.8125 1.234375 -2.359375 1.921875q-1.546875 0.671875 -3.5 0.671875q-3.234375 0 -4.9375 -1.34375q-1.6875 -1.34375 -2.15625 -3.984375z" fill-rule="nonzero"/>
   <a xlink:href="https://happycoding.io/tutorials/p5js" target="_top">
    <path fill="transparent" fill-opacity="0" d="m8.536975 107.68176l196.50394 0l0 46.48819l-196.50394 0z" fill-rule="evenodd"/>
   </a>
   <a xlink:href="https://happycoding.io/tutorials/p5js" target="_top">
    <path fill="transparent" fill-opacity="0" d="m8.536975 106.68176l0 0l196.50394 0c0.55229187 0 1.0 0.44771576 1.0 1.0l0 0l0 46.48819c0 0.55229187 -0.44770813 1.0 -1.0 1.0l0 0l-196.50394 0c-0.5522847 0 -1.0 -0.44770813 -1.0 -1.0l0 0l0 -46.48819c0 -0.55228424 0.44771528 -1.0 1.0 -1.0l0 0m0 2.0l0 -1.0l1.0 0l0 46.48819l-1.0 0l0 -1.0l196.50394 0l0 1.0l-1.0 0l0 -46.48819l1.0 0l0 1.0l-196.50394 0z" fill-rule="nonzero"/>
   </a>
  </g>
  <g filter="url(#shadowFilter-p.6)">
   <use xlink:href="#p.6" transform="matrix(1.0 0.0 0.0 1.0 0.0 2.0)"/>
  </g>
  <defs>
   <filter id="shadowFilter-p.6" filterUnits="userSpaceOnUse">
    <feGaussianBlur in="SourceAlpha" stdDeviation="2.0" result="blur"/>
    <feComponentTransfer in="blur" color-interpolation-filters="sRGB">
     <feFuncR type="linear" slope="0" intercept="0.0"/>
     <feFuncG type="linear" slope="0" intercept="0.0"/>
     <feFuncB type="linear" slope="0" intercept="0.0"/>
     <feFuncA type="linear" slope="0.5" intercept="0"/>
    </feComponentTransfer>
   </filter>
  </defs>
  <g id="p.6">
   <path fill="#b4a7d6" d="m218.752 302.4127l196.50395 0l0 46.48819l-196.50395 0z" fill-rule="evenodd"/>
   <path stroke="#000000" stroke-width="2.0" stroke-linejoin="round" stroke-linecap="butt" d="m218.752 302.4127l196.50395 0l0 46.48819l-196.50395 0z" fill-rule="evenodd"/>
   <path fill="#000000" d="m232.55865 330.87677l2.734375 -0.375q0.109375 2.625 0.984375 3.59375q0.875 0.96875 2.421875 0.96875q1.140625 0 1.96875 -0.515625q0.828125 -0.53125 1.140625 -1.421875q0.3125 -0.90625 0.3125 -2.875l0 -15.78125l3.03125 0l0 15.609375q0 2.875 -0.703125 4.453125q-0.6875 1.578125 -2.203125 2.40625q-1.5 0.828125 -3.53125 0.828125q-3.015625 0 -4.625 -1.734375q-1.59375 -1.734375 -1.53125 -5.15625zm28.015625 4.453125q-1.5625 1.328125 -3.015625 1.875q-1.4375 0.546875 -3.09375 0.546875q-2.734375 0 -4.203125 -1.328125q-1.46875 -1.34375 -1.46875 -3.421875q0 -1.21875 0.546875 -2.21875q0.5625 -1.015625 1.453125 -1.625q0.90625 -0.609375 2.03125 -0.921875q0.828125 -0.21875 2.5 -0.421875q3.40625 -0.40625 5.015625 -0.96875q0.015625 -0.578125 0.015625 -0.734375q0 -1.71875 -0.796875 -2.421875q-1.078125 -0.953125 -3.203125 -0.953125q-1.984375 0 -2.9375 0.703125q-0.9375 0.6875 -1.390625 2.453125l-2.75 -0.375q0.375 -1.765625 1.234375 -2.84375q0.859375 -1.09375 2.484375 -1.671875q1.625 -0.59375 3.765625 -0.59375q2.125 0 3.453125 0.5q1.328125 0.5 1.953125 1.265625q0.625 0.75 0.875 1.90625q0.140625 0.71875 0.140625 2.59375l0 3.75q0 3.921875 0.171875 4.96875q0.1875 1.03125 0.71875 1.984375l-2.9375 0q-0.4375 -0.875 -0.5625 -2.046875zm-0.234375 -6.28125q-1.53125 0.625 -4.59375 1.0625q-1.734375 0.25 -2.453125 0.5625q-0.71875 0.3125 -1.109375 0.921875q-0.390625 0.59375 -0.390625 1.328125q0 1.125 0.84375 1.875q0.859375 0.75 2.5 0.75q1.625 0 2.890625 -0.703125q1.265625 -0.71875 1.859375 -1.953125q0.453125 -0.953125 0.453125 -2.8125l0 -1.03125zm11.8125 8.328125l-6.3125 -16.59375l2.96875 0l3.5625 9.9375q0.578125 1.609375 1.0625 3.34375q0.375 -1.3125 1.046875 -3.15625l3.6875 -10.125l2.890625 0l-6.28125 16.59375l-2.625 0zm22.21875 -2.046875q-1.5625 1.328125 -3.015625 1.875q-1.4375 0.546875 -3.09375 0.546875q-2.734375 0 -4.203125 -1.328125q-1.46875 -1.34375 -1.46875 -3.421875q0 -1.21875 0.546875 -2.21875q0.5625 -1.015625 1.453125 -1.625q0.90625 -0.609375 2.03125 -0.921875q0.828125 -0.21875 2.5 -0.421875q3.40625 -0.40625 5.015625 -0.96875q0.015625 -0.578125 0.015625 -0.734375q0 -1.71875 -0.796875 -2.421875q-1.078125 -0.953125 -3.203125 -0.953125q-1.984375 0 -2.9375 0.703125q-0.9375 0.6875 -1.390625 2.453125l-2.75 -0.375q0.375 -1.765625 1.234375 -2.84375q0.859375 -1.09375 2.484375 -1.671875q1.625 -0.59375 3.765625 -0.59375q2.125 0 3.453125 0.5q1.328125 0.5 1.953125 1.265625q0.625 0.75 0.875 1.90625q0.140625 0.71875 0.140625 2.59375l0 3.75q0 3.921875 0.171875 4.96875q0.1875 1.03125 0.71875 1.984375l-2.9375 0q-0.4375 -0.875 -0.5625 -2.046875zm-0.234375 -6.28125q-1.53125 0.625 -4.59375 1.0625q-1.734375 0.25 -2.453125 0.5625q-0.71875 0.3125 -1.109375 0.921875q-0.390625 0.59375 -0.390625 1.328125q0 1.125 0.84375 1.875q0.859375 0.75 2.5 0.75q1.625 0 2.890625 -0.703125q1.265625 -0.71875 1.859375 -1.953125q0.453125 -0.953125 0.453125 -2.8125l0 -1.03125zm15.421875 0.96875l2.859375 -0.25q0.203125 1.71875 0.9375 2.828125q0.75 1.09375 2.3125 1.78125q1.5625 0.671875 3.515625 0.671875q1.734375 0 3.0625 -0.515625q1.328125 -0.515625 1.96875 -1.40625q0.65625 -0.90625 0.65625 -1.96875q0 -1.078125 -0.625 -1.875q-0.625 -0.8125 -2.0625 -1.359375q-0.921875 -0.359375 -4.078125 -1.109375q-3.15625 -0.765625 -4.421875 -1.4375q-1.640625 -0.859375 -2.453125 -2.125q-0.796875 -1.28125 -0.796875 -2.859375q0 -1.734375 0.984375 -3.234375q0.984375 -1.515625 2.875 -2.296875q1.890625 -0.78125 4.203125 -0.78125q2.546875 0 4.484375 0.828125q1.953125 0.8125 3.0 2.40625q1.046875 1.59375 1.125 3.609375l-2.90625 0.21875q-0.234375 -2.171875 -1.59375 -3.28125q-1.34375 -1.109375 -3.984375 -1.109375q-2.75 0 -4.015625 1.015625q-1.25 1.0 -1.25 2.421875q0 1.234375 0.890625 2.03125q0.875 0.796875 4.5625 1.640625q3.703125 0.828125 5.078125 1.453125q2.0 0.921875 2.953125 2.34375q0.953125 1.40625 0.953125 3.25q0 1.828125 -1.046875 3.453125q-1.046875 1.609375 -3.015625 2.515625q-1.953125 0.890625 -4.40625 0.890625q-3.109375 0 -5.21875 -0.90625q-2.09375 -0.90625 -3.296875 -2.71875q-1.1875 -1.828125 -1.25 -4.125zm33.375 2.015625l2.90625 0.359375q-0.6875 2.546875 -2.546875 3.953125q-1.859375 1.40625 -4.75 1.40625q-3.640625 0 -5.78125 -2.234375q-2.125 -2.25 -2.125 -6.296875q0 -4.1875 2.15625 -6.5q2.15625 -2.3125 5.59375 -2.3125q3.328125 0 5.4375 2.265625q2.109375 2.265625 2.109375 6.375q0 0.25 -0.015625 0.75l-12.375 0q0.15625 2.734375 1.546875 4.1875q1.390625 1.453125 3.46875 1.453125q1.546875 0 2.640625 -0.8125q1.09375 -0.8125 1.734375 -2.59375zm-9.234375 -4.546875l9.265625 0q-0.1875 -2.09375 -1.0625 -3.140625q-1.34375 -1.625 -3.484375 -1.625q-1.9375 0 -3.265625 1.296875q-1.3125 1.296875 -1.453125 3.46875zm15.640625 9.890625l0 -16.59375l2.53125 0l0 2.515625q0.96875 -1.765625 1.78125 -2.328125q0.828125 -0.5625 1.8125 -0.5625q1.421875 0 2.890625 0.90625l-0.96875 2.609375q-1.03125 -0.609375 -2.0625 -0.609375q-0.921875 0 -1.65625 0.5625q-0.734375 0.546875 -1.046875 1.53125q-0.46875 1.5 -0.46875 3.28125l0 8.6875l-2.8125 0zm15.296875 0l-6.3125 -16.59375l2.96875 0l3.5625 9.9375q0.578125 1.609375 1.0625 3.34375q0.375 -1.3125 1.046875 -3.15625l3.6875 -10.125l2.890625 0l-6.28125 16.59375l-2.625 0zm22.75 -5.34375l2.90625 0.359375q-0.6875 2.546875 -2.546875 3.953125q-1.859375 1.40625 -4.75 1.40625q-3.640625 0 -5.78125 -2.234375q-2.125 -2.25 -2.125 -6.296875q0 -4.1875 2.15625 -6.5q2.15625 -2.3125 5.59375 -2.3125q3.328125 0 5.4375 2.265625q2.109375 2.265625 2.109375 6.375q0 0.25 -0.015625 0.75l-12.375 0q0.15625 2.734375 1.546875 4.1875q1.390625 1.453125 3.46875 1.453125q1.546875 0 2.640625 -0.8125q1.09375 -0.8125 1.734375 -2.59375zm-9.234375 -4.546875l9.265625 0q-0.1875 -2.09375 -1.0625 -3.140625q-1.34375 -1.625 -3.484375 -1.625q-1.9375 0 -3.265625 1.296875q-1.3125 1.296875 -1.453125 3.46875zm15.640625 9.890625l0 -16.59375l2.53125 0l0 2.515625q0.96875 -1.765625 1.78125 -2.328125q0.828125 -0.5625 1.8125 -0.5625q1.421875 0 2.890625 0.90625l-0.96875 2.609375q-1.03125 -0.609375 -2.0625 -0.609375q-0.921875 0 -1.65625 0.5625q-0.734375 0.546875 -1.046875 1.53125q-0.46875 1.5 -0.46875 3.28125l0 8.6875l-2.8125 0z" fill-rule="nonzero"/>
   <a xlink:href="https://happycoding.io/tutorials/java-server" target="_top">
    <path fill="transparent" fill-opacity="0" d="m218.752 302.4127l196.50395 0l0 46.48819l-196.50395 0z" fill-rule="evenodd"/>
   </a>
   <a xlink:href="https://happycoding.io/tutorials/java-server" target="_top">
    <path fill="transparent" fill-opacity="0" d="m218.752 301.4127l0 0l196.50395 0c0.5522766 0 1.0 0.4477234 1.0 1.0l0 0l0 46.48819c0 0.5522766 -0.4477234 1.0 -1.0 1.0l0 0l-196.50395 0c-0.55229187 0 -1.0 -0.4477234 -1.0 -1.0l0 0l0 -46.48819c0 -0.5522766 0.44770813 -1.0 1.0 -1.0l0 0m0 2.0l0 -1.0l1.0 0l0 46.48819l-1.0 0l0 -1.0l196.50395 0l0 1.0l-1.0 0l0 -46.48819l1.0 0l0 1.0l-196.50395 0z" fill-rule="nonzero"/>
   </a>
  </g>
  <g filter="url(#shadowFilter-p.7)">
   <use xlink:href="#p.7" transform="matrix(1.0 0.0 0.0 1.0 0.0 2.0)"/>
  </g>
  <defs>
   <filter id="shadowFilter-p.7" filterUnits="userSpaceOnUse">
    <feGaussianBlur in="SourceAlpha" stdDeviation="2.0" result="blur"/>
    <feComponentTransfer in="blur" color-interpolation-filters="sRGB">
     <feFuncR type="linear" slope="0" intercept="0.0"/>
     <feFuncG type="linear" slope="0" intercept="0.0"/>
     <feFuncB type="linear" slope="0" intercept="0.0"/>
     <feFuncA type="linear" slope="0.5" intercept="0"/>
    </feComponentTransfer>
   </filter>
  </defs>
  <g id="p.7">
   <path fill="#6d9eeb" d="m428.9358 302.12732l196.50397 0l0 46.48819l-196.50397 0z" fill-rule="evenodd"/>
   <path stroke="#000000" stroke-width="2.0" stroke-linejoin="round" stroke-linecap="butt" d="m428.9358 302.12732l196.50397 0l0 46.48819l-196.50397 0z" fill-rule="evenodd"/>
   <path fill="#000000" d="m471.99246 337.0914l8.796875 -22.90625l3.265625 0l9.375 22.90625l-3.453125 0l-2.671875 -6.9375l-9.578125 0l-2.515625 6.9375l-3.21875 0zm6.609375 -9.40625l7.765625 0l-2.390625 -6.34375q-1.09375 -2.890625 -1.625 -4.75q-0.4375 2.203125 -1.234375 4.375l-2.515625 6.71875zm16.890625 9.40625l0 -16.59375l2.53125 0l0 2.359375q1.828125 -2.734375 5.28125 -2.734375q1.5 0 2.75 0.546875q1.265625 0.53125 1.890625 1.40625q0.625 0.875 0.875 2.078125q0.15625 0.78125 0.15625 2.734375l0 10.203125l-2.8125 0l0 -10.09375q0 -1.71875 -0.328125 -2.5625q-0.328125 -0.859375 -1.171875 -1.359375q-0.828125 -0.515625 -1.953125 -0.515625q-1.796875 0 -3.109375 1.140625q-1.296875 1.140625 -1.296875 4.328125l0 9.0625l-2.8125 0zm28.56247 0l0 -2.09375q-1.578125 2.46875 -4.640625 2.46875q-1.984375 0 -3.65625 -1.09375q-1.65625 -1.09375 -2.578125 -3.046875q-0.90625 -1.96875 -0.90625 -4.515625q0 -2.484375 0.828125 -4.5q0.828125 -2.03125 2.484375 -3.109375q1.65625 -1.078125 3.703125 -1.078125q1.5 0 2.671875 0.640625q1.171875 0.625 1.90625 1.640625l0 -8.21875l2.796875 0l0 22.90625l-2.609375 0zm-8.890625 -8.28125q0 3.1875 1.34375 4.765625q1.34375 1.578125 3.171875 1.578125q1.84375 0 3.125 -1.5q1.296875 -1.515625 1.296875 -4.609375q0 -3.40625 -1.3125 -5.0q-1.3125 -1.59375 -3.234375 -1.59375q-1.875 0 -3.140625 1.53125q-1.25 1.53125 -1.25 4.828125zm15.890625 8.28125l0 -16.59375l2.53125 0l0 2.515625q0.96875 -1.765625 1.78125 -2.328125q0.828125 -0.5625 1.8125 -0.5625q1.421875 0 2.890625 0.90625l-0.96875 2.609375q-1.03125 -0.609375 -2.0625 -0.609375q-0.921875 0 -1.65625 0.5625q-0.734375 0.546875 -1.046875 1.53125q-0.46875 1.5 -0.46875 3.28125l0 8.6875l-2.8125 0zm9.640625 -8.296875q0 -4.609375 2.5625 -6.828125q2.140625 -1.84375 5.21875 -1.84375q3.421875 0 5.59375 2.25q2.171875 2.234375 2.171875 6.1875q0 3.203125 -0.96875 5.046875q-0.953125 1.828125 -2.796875 2.84375q-1.828125 1.015625 -4.0 1.015625q-3.484375 0 -5.640625 -2.234375q-2.140625 -2.234375 -2.140625 -6.4375zm2.890625 0q0 3.1875 1.390625 4.78125q1.390625 1.578125 3.5 1.578125q2.09375 0 3.484375 -1.59375q1.390625 -1.59375 1.390625 -4.859375q0 -3.078125 -1.40625 -4.65625q-1.390625 -1.59375 -3.46875 -1.59375q-2.109375 0 -3.5 1.578125q-1.390625 1.578125 -1.390625 4.765625zm15.96875 -11.375l0 -3.234375l2.8125 0l0 3.234375l-2.8125 0zm0 19.671875l0 -16.59375l2.8125 0l0 16.59375l-2.8125 0zm17.859375 0l0 -2.09375q-1.578125 2.46875 -4.640625 2.46875q-1.984375 0 -3.65625 -1.09375q-1.65625 -1.09375 -2.578125 -3.046875q-0.90625 -1.96875 -0.90625 -4.515625q0 -2.484375 0.828125 -4.5q0.828125 -2.03125 2.484375 -3.109375q1.65625 -1.078125 3.703125 -1.078125q1.5 0 2.671875 0.640625q1.171875 0.625 1.90625 1.640625l0 -8.21875l2.796875 0l0 22.90625l-2.609375 0zm-8.890625 -8.28125q0 3.1875 1.34375 4.765625q1.34375 1.578125 3.171875 1.578125q1.84375 0 3.125 -1.5q1.296875 -1.515625 1.296875 -4.609375q0 -3.40625 -1.3125 -5.0q-1.3125 -1.59375 -3.234375 -1.59375q-1.875 0 -3.140625 1.53125q-1.25 1.53125 -1.25 4.828125z" fill-rule="nonzero"/>
   <a xlink:href="https://happycoding.io/tutorials/android" target="_top">
    <path fill="transparent" fill-opacity="0" d="m428.9358 302.12732l196.50397 0l0 46.48819l-196.50397 0z" fill-rule="evenodd"/>
   </a>
   <a xlink:href="https://happycoding.io/tutorials/android" target="_top">
    <path fill="transparent" fill-opacity="0" d="m428.9358 301.12732l0 0l196.50397 0c0.5523071 0 1.0 0.4477234 1.0 1.0l0 0l0 46.48819c0 0.5522766 -0.44769287 1.0 -1.0 1.0l0 0l-196.50397 0c-0.5522766 0 -1.0 -0.4477234 -1.0 -1.0l0 0l0 -46.48819c0 -0.5522766 0.4477234 -1.0 1.0 -1.0l0 0m0 2.0l0 -1.0l1.0 0l0 46.48819l-1.0 0l0 -1.0l196.50397 0l0 1.0l-1.0 0l0 -46.48819l1.0 0l0 1.0l-196.50397 0z" fill-rule="nonzero"/>
   </a>
  </g>
  <g filter="url(#shadowFilter-p.8)">
   <use xlink:href="#p.8" transform="matrix(1.0 0.0 0.0 1.0 0.0 2.0)"/>
  </g>
  <defs>
   <filter id="shadowFilter-p.8" filterUnits="userSpaceOnUse">
    <feGaussianBlur in="SourceAlpha" stdDeviation="2.0" result="blur"/>
    <feComponentTransfer in="blur" color-interpolation-filters="sRGB">
     <feFuncR type="linear" slope="0" intercept="0.0"/>
     <feFuncG type="linear" slope="0" intercept="0.0"/>
     <feFuncB type="linear" slope="0" intercept="0.0"/>
     <feFuncA type="linear" slope="0.5" intercept="0"/>
    </feComponentTransfer>
   </filter>
  </defs>
  <g id="p.8">
   <path fill="#3c78d8" d="m428.93573 399.3525l196.50397 0l0 46.48819l-196.50397 0z" fill-rule="evenodd"/>
   <path stroke="#000000" stroke-width="2.0" stroke-linejoin="round" stroke-linecap="butt" d="m428.93573 399.3525l196.50397 0l0 46.48819l-196.50397 0z" fill-rule="evenodd"/>
   <path fill="#000000" d="m478.5549 434.31662l0 -22.90625l2.8125 0l0 22.90625l-2.8125 0zm7.1875 -19.671875l0 -3.234375l2.8125 0l0 3.234375l-2.8125 0zm0 19.671875l0 -16.59375l2.8125 0l0 16.59375l-2.8125 0zm9.6875 0l-2.609375 0l0 -22.90625l2.8125 0l0 8.171875q1.78125 -2.234375 4.546875 -2.234375q1.53125 0 2.890625 0.625q1.375 0.609375 2.25 1.734375q0.890625 1.109375 1.390625 2.6875q0.5 1.578125 0.5 3.375q0 4.265625 -2.109375 6.59375q-2.109375 2.328125 -5.0625 2.328125q-2.9375 0 -4.609375 -2.453125l0 2.078125zm-0.03125 -8.421875q0 2.984375 0.8125 4.3125q1.328125 2.171875 3.59375 2.171875q1.84375 0 3.1875 -1.59375q1.34375 -1.609375 1.34375 -4.78125q0 -3.25 -1.296875 -4.796875q-1.28125 -1.546875 -3.109375 -1.546875q-1.84375 0 -3.1875 1.609375q-1.34375 1.59375 -1.34375 4.625zm26.31247 -0.5625l0 -2.6875l9.703125 -0.015625l0 8.5q-2.234375 1.78125 -4.609375 2.6875q-2.375 0.890625 -4.875 0.890625q-3.375 0 -6.140625 -1.4375q-2.75 -1.453125 -4.1562195 -4.1875q-1.40625 -2.734375 -1.40625 -6.109375q0 -3.34375 1.390625 -6.234375q1.4062195 -2.90625 4.0312195 -4.3125q2.625 -1.40625 6.046875 -1.40625q2.484375 0 4.484375 0.8125q2.015625 0.796875 3.15625 2.234375q1.140625 1.4375 1.734375 3.75l-2.734375 0.75q-0.515625 -1.75 -1.28125 -2.75q-0.765625 -1.0 -2.1875 -1.59375q-1.421875 -0.609375 -3.15625 -0.609375q-2.078125 0 -3.59375 0.640625q-1.515625 0.625 -2.453125 1.65625q-0.921875 1.03125 -1.4375 2.265625q-0.875 2.125 -0.875 4.609375q0 3.0625 1.046875 5.125q1.0625 2.0625 3.078125 3.0625q2.015625 1.0 4.28125 1.0q1.96875 0 3.84375 -0.75q1.875 -0.765625 2.84375 -1.625l0 -4.265625l-6.734375 0zm14.171875 8.984375l0 -22.90625l7.890625 0q2.671875 0 4.078125 0.328125q1.96875 0.453125 3.359375 1.640625q1.8125 1.53125 2.703125 3.921875q0.90625 2.375 0.90625 5.4375q0 2.609375 -0.609375 4.625q-0.609375 2.015625 -1.5625 3.34375q-0.953125 1.3125 -2.09375 2.078125q-1.125 0.75 -2.734375 1.140625q-1.59375 0.390625 -3.671875 0.390625l-8.265625 0zm3.03125 -2.703125l4.890625 0q2.265625 0 3.546875 -0.421875q1.296875 -0.421875 2.0625 -1.1875q1.078125 -1.078125 1.671875 -2.890625q0.609375 -1.828125 0.609375 -4.421875q0 -3.59375 -1.1875 -5.515625q-1.171875 -1.9375 -2.859375 -2.59375q-1.21875 -0.46875 -3.921875 -0.46875l-4.8125 0l0 17.5zm17.75 2.703125l8.859375 -11.9375l-7.8125 -10.96875l3.609375 0l4.15625 5.875q1.296875 1.828125 1.84375 2.8125q0.765625 -1.25 1.8125 -2.609375l4.609375 -6.078125l3.296875 0l-8.046875 10.796875l8.671875 12.109375l-3.75 0l-5.765625 -8.171875q-0.484375 -0.703125 -1.0 -1.53125q-0.765625 1.25 -1.09375 1.71875l-5.75 7.984375l-3.640625 0z" fill-rule="nonzero"/>
   <a xlink:href="https://happycoding.io/tutorials/libgdx" target="_top">
    <path fill="transparent" fill-opacity="0" d="m428.93573 399.3525l196.50397 0l0 46.48819l-196.50397 0z" fill-rule="evenodd"/>
   </a>
   <a xlink:href="https://happycoding.io/tutorials/libgdx" target="_top">
    <path fill="transparent" fill-opacity="0" d="m428.93573 398.3525l0 0l196.50397 0c0.5523071 0 1.0 0.4477234 1.0 1.0l0 0l0 46.48819c0 0.5522766 -0.44769287 1.0 -1.0 1.0l0 0l-196.50397 0c-0.5522766 0 -1.0 -0.4477234 -1.0 -1.0l0 0l0 -46.48819c0 -0.5522766 0.4477234 -1.0 1.0 -1.0l0 0m0 2.0l0 -1.0l1.0 0l0 46.48819l-1.0 0l0 -1.0l196.50397 0l0 1.0l-1.0 0l0 -46.48819l1.0 0l0 1.0l-196.50397 0z" fill-rule="nonzero"/>
   </a>
  </g>
  <g filter="url(#shadowFilter-p.9)">
   <use xlink:href="#p.9" transform="matrix(1.0 0.0 0.0 1.0 0.0 2.0)"/>
  </g>
  <defs>
   <filter id="shadowFilter-p.9" filterUnits="userSpaceOnUse">
    <feGaussianBlur in="SourceAlpha" stdDeviation="2.0" result="blur"/>
    <feComponentTransfer in="blur" color-interpolation-filters="sRGB">
     <feFuncR type="linear" slope="0" intercept="0.0"/>
     <feFuncG type="linear" slope="0" intercept="0.0"/>
     <feFuncB type="linear" slope="0" intercept="0.0"/>
     <feFuncA type="linear" slope="0.5" intercept="0"/>
    </feComponentTransfer>
   </filter>
  </defs>
  <g id="p.9">
   <path fill="#8e7cc3" d="m218.752 399.35233l196.50395 0l0 46.48819l-196.50395 0z" fill-rule="evenodd"/>
   <path stroke="#000000" stroke-width="2.0" stroke-linejoin="round" stroke-linecap="butt" d="m218.752 399.35233l196.50395 0l0 46.48819l-196.50395 0z" fill-rule="evenodd"/>
   <path fill="#000000" d="m246.48373 424.71204l0 -2.234375l8.078125 -0.015625l0 7.078125q-1.859375 1.484375 -3.84375 2.234375q-1.96875 0.75 -4.046875 0.75q-2.8125 0 -5.109375 -1.203125q-2.296875 -1.203125 -3.46875 -3.484375q-1.171875 -2.28125 -1.171875 -5.09375q0 -2.78125 1.15625 -5.1875q1.171875 -2.421875 3.359375 -3.59375q2.1875 -1.171875 5.03125 -1.171875q2.078125 0 3.75 0.671875q1.671875 0.671875 2.609375 1.875q0.953125 1.1875 1.453125 3.109375l-2.28125 0.625q-0.421875 -1.453125 -1.0625 -2.28125q-0.640625 -0.84375 -1.828125 -1.34375q-1.171875 -0.5 -2.625 -0.5q-1.734375 0 -3.0 0.53125q-1.25 0.53125 -2.03125 1.390625q-0.765625 0.859375 -1.203125 1.890625q-0.734375 1.765625 -0.734375 3.828125q0 2.5625 0.875 4.28125q0.890625 1.703125 2.5625 2.546875q1.6875 0.828125 3.578125 0.828125q1.640625 0 3.1875 -0.625q1.5625 -0.640625 2.375 -1.359375l0 -3.546875l-5.609375 0zm10.64035 0.578125q0 -3.84375 2.125 -5.6875q1.78125 -1.546875 4.34375 -1.546875q2.859375 0 4.65625 1.875q1.8125 1.859375 1.8125 5.15625q0 2.671875 -0.796875 4.203125q-0.796875 1.53125 -2.328125 2.375q-1.53125 0.84375 -3.34375 0.84375q-2.890625 0 -4.6875 -1.859375q-1.78125 -1.859375 -1.78125 -5.359375zm2.40625 0q0 2.65625 1.15625 3.984375q1.15625 1.3125 2.90625 1.3125q1.75 0 2.90625 -1.328125q1.15625 -1.328125 1.15625 -4.046875q0 -2.5625 -1.171875 -3.890625q-1.15625 -1.328125 -2.890625 -1.328125q-1.75 0 -2.90625 1.328125q-1.15625 1.3125 -1.15625 3.96875zm12.418671 0q0 -3.84375 2.125 -5.6875q1.78125 -1.546875 4.34375 -1.546875q2.859375 0 4.65625 1.875q1.8125 1.859375 1.8125 5.15625q0 2.671875 -0.796875 4.203125q-0.796875 1.53125 -2.328125 2.375q-1.53125 0.84375 -3.34375 0.84375q-2.890625 0 -4.6875 -1.859375q-1.78125 -1.859375 -1.78125 -5.359375zm2.40625 0q0 2.65625 1.15625 3.984375q1.15625 1.3125 2.90625 1.3125q1.75 0 2.90625 -1.328125q1.15625 -1.328125 1.15625 -4.046875q0 -2.5625 -1.171875 -3.890625q-1.15625 -1.328125 -2.890625 -1.328125q-1.75 0 -2.90625 1.328125q-1.15625 1.3125 -1.15625 3.96875zm12.856201 8.046875l2.28125 0.34375q0.140625 1.046875 0.796875 1.53125q0.859375 0.65625 2.375 0.65625q1.625 0 2.5 -0.65625q0.890625 -0.640625 1.203125 -1.8125q0.1875 -0.71875 0.171875 -3.015625q-1.53125 1.8125 -3.828125 1.8125q-2.84375 0 -4.40625 -2.046875q-1.5625 -2.0625 -1.5625 -4.9375q0 -1.984375 0.71875 -3.65625q0.71875 -1.671875 2.078125 -2.578125q1.359375 -0.921875 3.1875 -0.921875q2.453125 0 4.03125 1.984375l0 -1.671875l2.171875 0l0 11.953125q0 3.234375 -0.65625 4.578125q-0.65625 1.34375 -2.09375 2.125q-1.421875 0.78125 -3.5 0.78125q-2.46875 0 -4.0 -1.109375q-1.515625 -1.109375 -1.46875 -3.359375zm1.9375 -8.296875q0 2.71875 1.078125 3.96875q1.078125 1.25 2.703125 1.25q1.625 0 2.71875 -1.234375q1.09375 -1.25 1.09375 -3.90625q0 -2.546875 -1.125 -3.828125q-1.125 -1.296875 -2.71875 -1.296875q-1.5625 0 -2.65625 1.28125q-1.09375 1.265625 -1.09375 3.765625zm13.262421 7.15625l0 -19.078125l2.34375 0l0 19.078125l-2.34375 0zm15.437805 -4.453125l2.421875 0.296875q-0.578125 2.125 -2.125 3.296875q-1.546875 1.171875 -3.953125 1.171875q-3.03125 0 -4.8125 -1.859375q-1.78125 -1.875 -1.78125 -5.25q0 -3.484375 1.796875 -5.40625q1.796875 -1.9375 4.671875 -1.9375q2.765625 0 4.515625 1.890625q1.765625 1.890625 1.765625 5.3125q0 0.203125 -0.015625 0.625l-10.3125 0q0.140625 2.28125 1.296875 3.5q1.15625 1.203125 2.890625 1.203125q1.28125 0 2.1875 -0.671875q0.921875 -0.6875 1.453125 -2.171875zm-7.6875 -3.78125l7.71875 0q-0.15625 -1.75 -0.890625 -2.625q-1.125 -1.34375 -2.90625 -1.34375q-1.609375 0 -2.71875 1.078125q-1.09375 1.078125 -1.203125 2.890625zm34.37152 1.546875l2.53125 0.640625q-0.796875 3.109375 -2.859375 4.75q-2.0625 1.625 -5.046875 1.625q-3.09375 0 -5.03125 -1.25q-1.921875 -1.265625 -2.9375 -3.640625q-1.0 -2.390625 -1.0 -5.125q0 -2.984375 1.140625 -5.203125q1.140625 -2.21875 3.234375 -3.359375q2.109375 -1.15625 4.625 -1.15625q2.875 0 4.828125 1.46875q1.953125 1.453125 2.71875 4.09375l-2.484375 0.578125q-0.671875 -2.078125 -1.9375 -3.03125q-1.25 -0.953125 -3.171875 -0.953125q-2.203125 0 -3.6875 1.0625q-1.46875 1.046875 -2.0625 2.828125q-0.59375 1.78125 -0.59375 3.65625q0 2.4375 0.703125 4.265625q0.703125 1.8125 2.203125 2.71875q1.5 0.890625 3.25 0.890625q2.109375 0 3.578125 -1.21875q1.484375 -1.234375 2.0 -3.640625zm5.2815247 6.6875l0 -19.078125l2.34375 0l0 19.078125l-2.34375 0zm5.10968 -6.90625q0 -3.84375 2.125 -5.6875q1.78125 -1.546875 4.34375 -1.546875q2.859375 0 4.65625 1.875q1.8125 1.859375 1.8125 5.15625q0 2.671875 -0.796875 4.203125q-0.796875 1.53125 -2.328125 2.375q-1.53125 0.84375 -3.34375 0.84375q-2.890625 0 -4.6875 -1.859375q-1.78125 -1.859375 -1.78125 -5.359375zm2.40625 0q0 2.65625 1.15625 3.984375q1.15625 1.3125 2.90625 1.3125q1.75 0 2.90625 -1.328125q1.15625 -1.328125 1.15625 -4.046875q0 -2.5625 -1.171875 -3.890625q-1.15625 -1.328125 -2.890625 -1.328125q-1.75 0 -2.90625 1.328125q-1.15625 1.3125 -1.15625 3.96875zm22.340546 6.90625l0 -2.03125q-1.609375 2.34375 -4.375 2.34375q-1.234375 0 -2.296875 -0.46875q-1.0625 -0.46875 -1.578125 -1.171875q-0.5 -0.71875 -0.71875 -1.75q-0.140625 -0.6875 -0.140625 -2.1875l0 -8.5625l2.34375 0l0 7.671875q0 1.828125 0.140625 2.46875q0.21875 0.921875 0.9375 1.453125q0.71875 0.53125 1.765625 0.53125q1.0625 0 1.984375 -0.53125q0.921875 -0.546875 1.296875 -1.46875q0.390625 -0.9375 0.390625 -2.71875l0 -7.40625l2.34375 0l0 13.828125l-2.09375 0zm14.731201 0l0 -1.75q-1.3125 2.0625 -3.859375 2.0625q-1.65625 0 -3.046875 -0.90625q-1.375 -0.921875 -2.140625 -2.546875q-0.765625 -1.640625 -0.765625 -3.75q0 -2.078125 0.6875 -3.765625q0.703125 -1.6875 2.078125 -2.578125q1.375 -0.90625 3.078125 -0.90625q1.25 0 2.21875 0.53125q0.984375 0.53125 1.59375 1.375l0 -6.84375l2.34375 0l0 19.078125l-2.1875 0zm-7.40625 -6.890625q0 2.640625 1.125 3.96875q1.125 1.3125 2.640625 1.3125q1.53125 0 2.609375 -1.25q1.078125 -1.265625 1.078125 -3.84375q0 -2.84375 -1.09375 -4.171875q-1.09375 -1.328125 -2.703125 -1.328125q-1.546875 0 -2.609375 1.28125q-1.046875 1.28125 -1.046875 4.03125z" fill-rule="nonzero"/>
   <a xlink:href="https://happycoding.io/tutorials/google-cloud" target="_top">
    <path fill="transparent" fill-opacity="0" d="m218.752 399.35233l196.50395 0l0 46.48819l-196.50395 0z" fill-rule="evenodd"/>
   </a>
   <a xlink:href="https://happycoding.io/tutorials/google-cloud" target="_top">
    <path fill="transparent" fill-opacity="0" d="m218.752 398.35233l0 0l196.50395 0c0.5522766 0 1.0 0.4477234 1.0 1.0l0 0l0 46.48819c0 0.5522766 -0.4477234 1.0 -1.0 1.0l0 0l-196.50395 0c-0.55229187 0 -1.0 -0.4477234 -1.0 -1.0l0 0l0 -46.48819c0 -0.5522766 0.44770813 -1.0 1.0 -1.0l0 0m0 2.0l0 -1.0l1.0 0l0 46.48819l-1.0 0l0 -1.0l196.50395 0l0 1.0l-1.0 0l0 -46.48819l1.0 0l0 1.0l-196.50395 0z" fill-rule="nonzero"/>
   </a>
  </g>
  <path fill="#000000" fill-opacity="0.0" d="m205.04091 130.92586l223.87401 0" fill-rule="evenodd"/>
  <path stroke="#000000" stroke-width="2.0" stroke-linejoin="round" stroke-linecap="butt" d="m217.04091 130.92586l199.87404 0" fill-rule="evenodd"/>
  <path fill="#000000" stroke="#000000" stroke-width="2.0" stroke-linecap="butt" d="m217.04091 127.62239l-9.076202 3.3034668l9.076202 3.3034668z" fill-rule="evenodd"/>
  <path fill="#000000" stroke="#000000" stroke-width="2.0" stroke-linecap="butt" d="m416.91495 134.22932l9.076202 -3.3034668l-9.076202 -3.3034668z" fill-rule="evenodd"/>
  <path fill="#000000" fill-opacity="0.0" d="m106.78894 154.16995l0 50.866135" fill-rule="evenodd"/>
  <path stroke="#000000" stroke-width="2.0" stroke-linejoin="round" stroke-linecap="butt" d="m106.78894 154.16995l0 38.866135" fill-rule="evenodd"/>
  <path fill="#000000" stroke="#000000" stroke-width="2.0" stroke-linecap="butt" d="m103.48547 193.03609l3.3034668 9.076202l3.3034668 -9.076202z" fill-rule="evenodd"/>
  <path fill="#000000" fill-opacity="0.0" d="m317.00397 348.90088l0 50.456696" fill-rule="evenodd"/>
  <path stroke="#000000" stroke-width="2.0" stroke-linejoin="round" stroke-linecap="butt" d="m317.00397 348.90088l0 38.456696" fill-rule="evenodd"/>
  <path fill="#000000" stroke="#000000" stroke-width="2.0" stroke-linecap="butt" d="m313.7005 387.35757l3.3034668 9.076202l3.3034668 -9.076202z" fill-rule="evenodd"/>
  <g filter="url(#shadowFilter-p.10)">
   <use xlink:href="#p.10" transform="matrix(1.0 0.0 0.0 1.0 0.0 2.0)"/>
  </g>
  <defs>
   <filter id="shadowFilter-p.10" filterUnits="userSpaceOnUse">
    <feGaussianBlur in="SourceAlpha" stdDeviation="2.0" result="blur"/>
    <feComponentTransfer in="blur" color-interpolation-filters="sRGB">
     <feFuncR type="linear" slope="0" intercept="0.0"/>
     <feFuncG type="linear" slope="0" intercept="0.0"/>
     <feFuncB type="linear" slope="0" intercept="0.0"/>
     <feFuncA type="linear" slope="0.5" intercept="0"/>
    </feComponentTransfer>
   </filter>
  </defs>
  <g id="p.10">
   <path fill="#ffffff" d="m8.536975 10.31693l196.50394 0l0 46.48819l-196.50394 0z" fill-rule="evenodd"/>
   <path stroke="#000000" stroke-width="2.0" stroke-linejoin="round" stroke-linecap="butt" d="m8.536975 10.31693l196.50394 0l0 46.48819l-196.50394 0z" fill-rule="evenodd"/>
   <path fill="#000000" d="m33.52332 37.921646l2.859375 -0.25q0.203125 1.71875 0.9375 2.828125q0.75 1.09375 2.3125 1.78125q1.5625 0.671875 3.515625 0.671875q1.734375 0 3.0625 -0.515625q1.328125 -0.515625 1.96875 -1.40625q0.65625 -0.90625 0.65625 -1.96875q0 -1.078125 -0.625 -1.875q-0.625 -0.8125 -2.0625 -1.359375q-0.921875 -0.359375 -4.078125 -1.109375q-3.15625 -0.765625 -4.421875 -1.4375q-1.640625 -0.859375 -2.453125 -2.124998q-0.796875 -1.28125 -0.796875 -2.859375q0 -1.734375 0.984375 -3.234375q0.984375 -1.515625 2.875 -2.296875q1.890625 -0.78125 4.203125 -0.78125q2.546875 0 4.484375 0.828125q1.953125 0.8125 3.0 2.40625q1.046875 1.59375 1.125 3.609375l-2.90625 0.21875q-0.234375 -2.171875 -1.59375 -3.28125q-1.34375 -1.109375 -3.984375 -1.109375q-2.75 0 -4.015625 1.015625q-1.25 1.0 -1.25 2.421875q0 1.234375 0.890625 2.03125q0.875 0.796875 4.5625 1.640625q3.703125 0.8281231 5.078125 1.4531231q2.0 0.921875 2.953125 2.34375q0.953125 1.40625 0.953125 3.25q0 1.828125 -1.046875 3.453125q-1.046875 1.609375 -3.015625 2.515625q-1.953125 0.890625 -4.40625 0.890625q-3.109375 0 -5.21875 -0.90625q-2.09375 -0.90625 -3.296875 -2.71875q-1.1875 -1.828125 -1.25 -4.125zm28.15625 4.84375l0.40625 2.484375q-1.1875 0.25 -2.125 0.25q-1.53125 0 -2.375 -0.484375q-0.84375 -0.484375 -1.1875 -1.265625q-0.34375 -0.796875 -0.34375 -3.328125l0 -9.546873l-2.0625 0l0 -2.1875l2.0625 0l0 -4.109375l2.796875 -1.6875l0 5.796875l2.828125 0l0 2.1875l-2.828125 0l0 9.703123q0 1.203125 0.140625 1.546875q0.15625 0.34375 0.484375 0.546875q0.34375 0.203125 0.96875 0.203125q0.46875 0 1.234375 -0.109375zm13.578121 0.46875q-1.5625 1.328125 -3.015625 1.875q-1.4375 0.546875 -3.09375 0.546875q-2.734375 0 -4.203125 -1.328125q-1.4687462 -1.34375 -1.4687462 -3.421875q0 -1.21875 0.5468712 -2.21875q0.5625 -1.015625 1.453125 -1.625q0.90625 -0.609375 2.03125 -0.921875q0.828125 -0.21875 2.5 -0.421875q3.40625 -0.40625 5.015625 -0.96875q0.015625 -0.578125 0.015625 -0.734375q0 -1.71875 -0.796875 -2.421873q-1.078125 -0.953125 -3.203125 -0.953125q-1.984375 0 -2.9375 0.703125q-0.9375 0.6874981 -1.390625 2.453123l-2.7499962 -0.375q0.3749962 -1.7656231 1.2343712 -2.843748q0.859375 -1.09375 2.484375 -1.671875q1.625 -0.59375 3.765625 -0.59375q2.125 0 3.453125 0.5q1.328125 0.5 1.953125 1.265625q0.625 0.75 0.875 1.90625q0.140625 0.7187481 0.140625 2.593748l0 3.75q0 3.921875 0.171875 4.96875q0.1875 1.03125 0.71875 1.984375l-2.9375 0q-0.4375 -0.875 -0.5625 -2.046875zm-0.234375 -6.28125q-1.53125 0.625 -4.59375 1.0625q-1.734375 0.25 -2.453125 0.5625q-0.71875 0.3125 -1.109375 0.921875q-0.390625 0.59375 -0.390625 1.328125q0 1.125 0.84375 1.875q0.859375 0.75 2.5 0.75q1.625 0 2.890625 -0.703125q1.265625 -0.71875 1.859375 -1.953125q0.453125 -0.953125 0.453125 -2.8125l0 -1.03125zm7.171875 8.328125l0 -16.593748l2.53125 0l0 2.515625q0.96875 -1.765625 1.78125 -2.328125q0.828125 -0.5625 1.8125 -0.5625q1.421875 0 2.890625 0.90625l-0.96875 2.609375q-1.03125 -0.609375 -2.0625 -0.609375q-0.921875 0 -1.65625 0.5625q-0.734375 0.5468731 -1.046875 1.5312481q-0.46875 1.5 -0.46875 3.28125l0 8.6875l-2.8125 0zm16.828125 -2.515625l0.40625 2.484375q-1.1875 0.25 -2.125 0.25q-1.53125 0 -2.375 -0.484375q-0.84375 -0.484375 -1.1875 -1.265625q-0.34375 -0.796875 -0.34375 -3.328125l0 -9.546873l-2.0625 0l0 -2.1875l2.0625 0l0 -4.109375l2.796875 -1.6875l0 5.796875l2.828125 0l0 2.1875l-2.828125 0l0 9.703123q0 1.203125 0.140625 1.546875q0.15625 0.34375 0.484375 0.546875q0.34375 0.203125 0.96875 0.203125q0.46875 0 1.234375 -0.109375zm11.640625 2.515625l0 -22.906248l2.8125 0l0 8.21875q1.96875 -2.28125 4.96875 -2.28125q1.84375 0 3.203125 0.734375q1.359375 0.71875 1.9375 2.0q0.59375 1.2812481 0.59375 3.718748l0 10.515625l-2.8125 0l0 -10.515625q0 -2.109375 -0.921875 -3.062498q-0.90625 -0.96875 -2.578125 -0.96875q-1.25 0 -2.359375 0.65625q-1.09375 0.6406231 -1.5625 1.7499981q-0.46875 1.109375 -0.46875 3.0625l0 9.078125l-2.8125 0zm29.15625 -5.34375l2.90625 0.359375q-0.6875 2.546875 -2.546875 3.953125q-1.859375 1.40625 -4.75 1.40625q-3.640625 0 -5.78125 -2.234375q-2.125 -2.25 -2.125 -6.296875q0 -4.1875 2.15625 -6.499998q2.15625 -2.3125 5.59375 -2.3125q3.328125 0 5.4375 2.265625q2.109375 2.265623 2.109375 6.374998q0 0.25 -0.015625 0.75l-12.375 0q0.15625 2.734375 1.546875 4.1875q1.390625 1.453125 3.46875 1.453125q1.546875 0 2.640625 -0.8125q1.09375 -0.8125 1.734375 -2.59375zm-9.234375 -4.546875l9.265625 0q-0.1875 -2.09375 -1.0625 -3.140625q-1.34375 -1.6249981 -3.484375 -1.6249981q-1.9375 0 -3.265625 1.296875q-1.3125 1.2968731 -1.453125 3.468748zm15.640625 9.890625l0 -16.593748l2.53125 0l0 2.515625q0.96875 -1.765625 1.78125 -2.328125q0.828125 -0.5625 1.8125 -0.5625q1.421875 0 2.890625 0.90625l-0.96875 2.609375q-1.03125 -0.609375 -2.0625 -0.609375q-0.921875 0 -1.65625 0.5625q-0.734375 0.5468731 -1.046875 1.5312481q-0.46875 1.5 -0.46875 3.28125l0 8.6875l-2.8125 0zm22.046875 -5.34375l2.90625 0.359375q-0.6875 2.546875 -2.546875 3.953125q-1.859375 1.40625 -4.75 1.40625q-3.640625 0 -5.78125 -2.234375q-2.125 -2.25 -2.125 -6.296875q0 -4.1875 2.15625 -6.499998q2.15625 -2.3125 5.59375 -2.3125q3.328125 0 5.4375 2.265625q2.109375 2.265623 2.109375 6.374998q0 0.25 -0.015625 0.75l-12.375 0q0.15625 2.734375 1.546875 4.1875q1.390625 1.453125 3.46875 1.453125q1.546875 0 2.640625 -0.8125q1.09375 -0.8125 1.734375 -2.59375zm-9.234375 -4.546875l9.265625 0q-0.1875 -2.09375 -1.0625 -3.140625q-1.34375 -1.6249981 -3.484375 -1.6249981q-1.9375 0 -3.265625 1.296875q-1.3125 1.2968731 -1.453125 3.468748zm17.171875 4.203125l-0.859375 -12.140623l0 -5.078125l3.484375 0l0 5.078125l-0.8125 12.140623l-1.8125 0zm-0.734375 5.6875l0 -3.203125l3.234375 0l0 3.203125l-3.234375 0z" fill-rule="nonzero"/>
  </g>
  <path fill="#000000" fill-opacity="0.0" d="m106.78894 56.815617l0 50.866146" fill-rule="evenodd"/>
  <path stroke="#000000" stroke-width="2.0" stroke-linejoin="round" stroke-linecap="butt" d="m106.78894 56.815617l0 38.86614" fill-rule="evenodd"/>
  <path fill="#000000" stroke="#000000" stroke-width="2.0" stroke-linecap="butt" d="m103.48547 95.68176l3.3034668 9.076195l3.3034668 -9.076195z" fill-rule="evenodd"/>
  <path fill="#ffffff" d="m428.90833 10.3254595l196.5039 0l0 46.48819l-196.5039 0z" fill-rule="evenodd"/>
  <path stroke="#000000" stroke-width="2.0" stroke-linejoin="round" stroke-linecap="butt" d="m428.90833 10.3254595l196.5039 0l0 46.48819l-196.5039 0z" fill-rule="evenodd"/>
  <path fill="#000000" d="m452.6645 48.778927q-1.9375 -2.453125 -3.28125 -5.71875q-1.34375 -3.28125 -1.34375 -6.796875q0 -3.109375 1.0 -5.9375q1.171875 -3.296875 3.625 -6.5625l1.671875 0q-1.5625 2.703125 -2.078125 3.859375q-0.796875 1.796875 -1.25 3.75q-0.5625 2.4375 -0.5625 4.90625q0 6.25 3.890625 12.5l-1.671875 0zm3.5329895 -12.515625q0 -3.84375 2.125 -5.6875q1.78125 -1.546875 4.34375 -1.546875q2.859375 0 4.65625 1.875q1.8125 1.859375 1.8125 5.15625q0 2.671875 -0.796875 4.203125q-0.796875 1.53125 -2.328125 2.375q-1.53125 0.84375 -3.34375 0.84375q-2.890625 0 -4.6875 -1.859375q-1.78125 -1.859375 -1.78125 -5.359375zm2.40625 0q0 2.65625 1.15625 3.984375q1.15625 1.3125 2.90625 1.3125q1.75 0 2.90625 -1.328125q1.15625 -1.328125 1.15625 -4.046875q0 -2.5625 -1.171875 -3.890625q-1.15625 -1.328125 -2.890625 -1.328125q-1.75 0 -2.90625 1.328125q-1.15625 1.3125 -1.15625 3.96875zm13.262451 6.90625l0 -13.828125l2.109375 0l0 2.09375q0.796875 -1.46875 1.484375 -1.9375q0.6875 -0.46875 1.5 -0.46875q1.1875 0 2.40625 0.765625l-0.796875 2.171875q-0.859375 -0.515625 -1.71875 -0.515625q-0.765625 0 -1.390625 0.46875q-0.609375 0.453125 -0.859375 1.28125q-0.390625 1.25 -0.390625 2.734375l0 7.234375l-2.34375 0zm15.360809 -4.125l2.328125 -0.359375q0.1875 1.390625 1.078125 2.140625q0.890625 0.734375 2.5 0.734375q1.609375 0 2.390625 -0.65625q0.78125 -0.65625 0.78125 -1.546875q0 -0.796875 -0.6875 -1.25q-0.484375 -0.3125 -2.390625 -0.796875q-2.578125 -0.65625 -3.578125 -1.125q-1.0 -0.46875 -1.515625 -1.3125q-0.515625 -0.84375 -0.515625 -1.859375q0 -0.921875 0.421875 -1.703125q0.4375 -0.796875 1.15625 -1.3125q0.546875 -0.40625 1.484375 -0.6875q0.953125 -0.28125 2.03125 -0.28125q1.625 0 2.859375 0.46875q1.234375 0.46875 1.8125 1.28125q0.59375 0.796875 0.8125 2.140625l-2.296875 0.3125q-0.15625 -1.078125 -0.90625 -1.671875q-0.75 -0.59375 -2.109375 -0.59375q-1.609375 0 -2.3125 0.53125q-0.6875 0.53125 -0.6875 1.25q0 0.453125 0.296875 0.8125q0.28125 0.375 0.890625 0.625q0.359375 0.140625 2.078125 0.609375q2.484375 0.65625 3.46875 1.078125q0.984375 0.421875 1.53125 1.234375q0.5625 0.796875 0.5625 2.0q0 1.171875 -0.6875 2.21875q-0.671875 1.03125 -1.96875 1.59375q-1.28125 0.5625 -2.90625 0.5625q-2.703125 0 -4.125 -1.109375q-1.40625 -1.125 -1.796875 -3.328125zm19.390625 2.03125l0.328125 2.0625q-0.984375 0.21875 -1.765625 0.21875q-1.265625 0 -1.96875 -0.40625q-0.703125 -0.40625 -1.0 -1.0625q-0.28125 -0.65625 -0.28125 -2.765625l0 -7.953125l-1.71875 0l0 -1.828125l1.71875 0l0 -3.421875l2.328125 -1.40625l0 4.828125l2.359375 0l0 1.828125l-2.359375 0l0 8.078125q0 1.0 0.125 1.296875q0.125 0.28125 0.40625 0.453125q0.28125 0.171875 0.796875 0.171875q0.390625 0 1.03125 -0.09375zm11.312195 0.390625q-1.3125 1.109375 -2.515625 1.5625q-1.203125 0.453125 -2.578125 0.453125q-2.2812195 0 -3.4999695 -1.109375q-1.21875 -1.109375 -1.21875 -2.84375q0 -1.015625 0.453125 -1.859375q0.46875 -0.84375 1.21875 -1.34375q0.75 -0.515625 1.6875 -0.765625q0.6874695 -0.1875 2.0780945 -0.359375q2.828125 -0.328125 4.171875 -0.796875q0.015625 -0.484375 0.015625 -0.625q0 -1.421875 -0.65625 -2.015625q-0.90625 -0.796875 -2.671875 -0.796875q-1.65625 0 -2.4530945 0.59375q-0.78125 0.578125 -1.15625 2.046875l-2.296875 -0.3125q0.3125 -1.46875 1.03125 -2.375q0.71875 -0.90625 2.0625 -1.390625q1.3593445 -0.5 3.1405945 -0.5q1.78125 0 2.875 0.421875q1.109375 0.421875 1.625 1.046875q0.53125 0.625 0.734375 1.59375q0.125 0.59375 0.125 2.15625l0 3.125q0 3.265625 0.140625 4.140625q0.15625 0.859375 0.59375 1.65625l-2.4375 0q-0.375 -0.734375 -0.46875 -1.703125zm-0.203125 -5.234375q-1.265625 0.515625 -3.828125 0.890625q-1.4375 0.203125 -2.0468445 0.46875q-0.59375 0.25 -0.921875 0.75q-0.3125 0.5 -0.3125 1.125q0 0.9375 0.703125 1.5625q0.7030945 0.625 2.0780945 0.625q1.34375 0 2.390625 -0.59375q1.0625 -0.59375 1.5625 -1.625q0.375 -0.796875 0.375 -2.34375l0 -0.859375zm5.981201 6.9375l0 -13.828125l2.109375 0l0 2.09375q0.796875 -1.46875 1.484375 -1.9375q0.6875 -0.46875 1.5 -0.46875q1.1875 0 2.40625 0.765625l-0.796875 2.171875q-0.859375 -0.515625 -1.71875 -0.515625q-0.765625 0 -1.390625 0.46875q-0.609375 0.453125 -0.859375 1.28125q-0.390625 1.25 -0.390625 2.734375l0 7.234375l-2.34375 0zm14.017395 -2.09375l0.328125 2.0625q-0.984375 0.21875 -1.765625 0.21875q-1.265625 0 -1.96875 -0.40625q-0.703125 -0.40625 -1.0 -1.0625q-0.28125 -0.65625 -0.28125 -2.765625l0 -7.953125l-1.71875 0l0 -1.828125l1.71875 0l0 -3.421875l2.328125 -1.40625l0 4.828125l2.359375 0l0 1.828125l-2.359375 0l0 8.078125q0 1.0 0.125 1.296875q0.125 0.28125 0.40625 0.453125q0.28125 0.171875 0.796875 0.171875q0.390625 0 1.03125 -0.09375zm9.68689 2.09375l0 -19.078125l2.34375 0l0 6.84375q1.640625 -1.90625 4.140625 -1.90625q1.546875 0 2.671875 0.609375q1.140625 0.609375 1.625 1.671875q0.484375 1.0625 0.484375 3.09375l0 8.765625l-2.34375 0l0 -8.765625q0 -1.75 -0.765625 -2.546875q-0.75 -0.8125 -2.15625 -0.8125q-1.03125 0 -1.953125 0.546875q-0.921875 0.546875 -1.3125 1.46875q-0.390625 0.921875 -0.390625 2.546875l0 7.5625l-2.34375 0zm24.293701 -4.453125l2.421875 0.296875q-0.578125 2.125 -2.125 3.296875q-1.546875 1.171875 -3.953125 1.171875q-3.03125 0 -4.8125 -1.859375q-1.78125 -1.875 -1.78125 -5.25q0 -3.484375 1.796875 -5.40625q1.796875 -1.9375 4.671875 -1.9375q2.765625 0 4.515625 1.890625q1.765625 1.890625 1.765625 5.3125q0 0.203125 -0.015625 0.625l-10.3125 0q0.140625 2.28125 1.296875 3.5q1.15625 1.203125 2.890625 1.203125q1.28125 0 2.1875 -0.671875q0.921875 -0.6875 1.453125 -2.171875zm-7.6875 -3.78125l7.71875 0q-0.15625 -1.75 -0.890625 -2.625q-1.125 -1.34375 -2.90625 -1.34375q-1.609375 0 -2.71875 1.078125q-1.09375 1.078125 -1.203125 2.890625zm13.028015 8.234375l0 -13.828125l2.109375 0l0 2.09375q0.796875 -1.46875 1.484375 -1.9375q0.6875 -0.46875 1.5 -0.46875q1.1875 0 2.40625 0.765625l-0.796875 2.171875q-0.859375 -0.515625 -1.71875 -0.515625q-0.765625 0 -1.390625 0.46875q-0.609375 0.453125 -0.859375 1.28125q-0.390625 1.25 -0.390625 2.734375l0 7.234375l-2.34375 0zm18.361145 -4.453125l2.421875 0.296875q-0.578125 2.125 -2.125 3.296875q-1.546875 1.171875 -3.953125 1.171875q-3.03125 0 -4.8125 -1.859375q-1.78125 -1.875 -1.78125 -5.25q0 -3.484375 1.796875 -5.40625q1.796875 -1.9375 4.671875 -1.9375q2.765625 0 4.515625 1.890625q1.765625 1.890625 1.765625 5.3125q0 0.203125 -0.015625 0.625l-10.3125 0q0.140625 2.28125 1.296875 3.5q1.15625 1.203125 2.890625 1.203125q1.28125 0 2.1875 -0.671875q0.921875 -0.6875 1.453125 -2.171875zm-7.6875 -3.78125l7.71875 0q-0.15625 -1.75 -0.890625 -2.625q-1.125 -1.34375 -2.90625 -1.34375q-1.609375 0 -2.71875 1.078125q-1.09375 1.078125 -1.203125 2.890625zm14.590576 13.84375l-1.6875 0q3.890625 -6.25 3.890625 -12.5q0 -2.453125 -0.546875 -4.859375q-0.453125 -1.953125 -1.25 -3.75q-0.5 -1.171875 -2.09375 -3.90625l1.6875 0q2.4375 3.265625 3.609375 6.5625q1.0 2.828125 1.0 5.9375q0 3.515625 -1.34375 6.796875q-1.34375 3.265625 -3.265625 5.71875z" fill-rule="nonzero"/>
  <path fill="#000000" fill-opacity="0.0" d="m527.1549 56.752472l0 50.92913" fill-rule="evenodd"/>
  <path stroke="#000000" stroke-width="2.0" stroke-linejoin="round" stroke-linecap="butt" d="m527.1549 56.752472l0 38.92913" fill-rule="evenodd"/>
  <path fill="#000000" stroke="#000000" stroke-width="2.0" stroke-linecap="butt" d="m523.8515 95.6816l3.3034058 9.076195l3.3034668 -9.076195z" fill-rule="evenodd"/>
 </g>
</svg>